<?xml version="1.0" encoding="UTF-8" standalone="no"?>
<!-- Created with Inkscape (http://www.inkscape.org/) -->

<svg
   width="1200"
   height="1200"
   viewBox="0 0 317.5 317.5"
   version="1.1"
   id="svg5"
   inkscape:version="1.2.1 (9c6d41e4, 2022-07-14)"
   sodipodi:docname="brealing-out-circle.svg"
   xmlns:inkscape="http://www.inkscape.org/namespaces/inkscape"
   xmlns:sodipodi="http://sodipodi.sourceforge.net/DTD/sodipodi-0.dtd"
   xmlns="http://www.w3.org/2000/svg"
   xmlns:svg="http://www.w3.org/2000/svg">
  <sodipodi:namedview
     id="namedview7"
     pagecolor="#ffffff"
     bordercolor="#eeeeee"
     borderopacity="1"
     inkscape:pageshadow="0"
     inkscape:pageopacity="0"
     inkscape:pagecheckerboard="0"
     inkscape:document-units="px"
     showgrid="false"
     inkscape:showpageshadow="false"
     showborder="false"
     units="px"
     inkscape:deskcolor="#d1d1d1"
     borderlayer="true"
     inkscape:zoom="1.4142136"
     inkscape:cx="322.79424"
     inkscape:cy="508.40977"
     inkscape:window-width="2817"
     inkscape:window-height="1266"
     inkscape:window-x="121"
     inkscape:window-y="101"
     inkscape:window-maximized="0"
     inkscape:current-layer="layer1" />
  <defs
     id="defs2">
    <inkscape:path-effect
       effect="spiro"
       id="path-effect14124"
       is_visible="true"
       lpeversion="1" />
    <inkscape:path-effect
       effect="spiro"
       id="path-effect14120"
       is_visible="true"
       lpeversion="1" />
    <inkscape:path-effect
       effect="spiro"
       id="path-effect14116"
       is_visible="true"
       lpeversion="1" />
    <inkscape:path-effect
       effect="spiro"
       id="path-effect14112"
       is_visible="true"
       lpeversion="1" />
    <inkscape:path-effect
       effect="spiro"
       id="path-effect10942"
       is_visible="true"
       lpeversion="1" />
    <inkscape:path-effect
       effect="spiro"
       id="path-effect10938"
       is_visible="true"
       lpeversion="1" />
    <inkscape:path-effect
       effect="spiro"
       id="path-effect10934"
       is_visible="true"
       lpeversion="1" />
    <inkscape:path-effect
       effect="spiro"
       id="path-effect10930"
       is_visible="true"
       lpeversion="1" />
    <inkscape:path-effect
       effect="spiro"
       id="path-effect10926"
       is_visible="true"
       lpeversion="1" />
    <inkscape:path-effect
       effect="spiro"
       id="path-effect10922"
       is_visible="true"
       lpeversion="1" />
    <inkscape:path-effect
       effect="spiro"
       id="path-effect10643"
       is_visible="true"
       lpeversion="1" />
    <inkscape:path-effect
       effect="spiro"
       id="path-effect10637"
       is_visible="true"
       lpeversion="1" />
    <inkscape:path-effect
       effect="spiro"
       id="path-effect10631"
       is_visible="true"
       lpeversion="1" />
    <inkscape:path-effect
       effect="spiro"
       id="path-effect10625"
       is_visible="true"
       lpeversion="1" />
    <inkscape:path-effect
       effect="spiro"
       id="path-effect10621"
       is_visible="true"
       lpeversion="1" />
    <inkscape:path-effect
       effect="spiro"
       id="path-effect10615"
       is_visible="true"
       lpeversion="1" />
    <inkscape:path-effect
       effect="spiro"
       id="path-effect7634"
       is_visible="true"
       lpeversion="1" />
    <inkscape:path-effect
       effect="spiro"
       id="path-effect7630"
       is_visible="true"
       lpeversion="1" />
    <inkscape:path-effect
       effect="spiro"
       id="path-effect7626"
       is_visible="true"
       lpeversion="1" />
    <inkscape:path-effect
       effect="spiro"
       id="path-effect5335"
       is_visible="true"
       lpeversion="1" />
    <inkscape:path-effect
       effect="spiro"
       id="path-effect2668"
       is_visible="true"
       lpeversion="1" />
    <inkscape:path-effect
       effect="spiro"
       id="path-effect2525"
       is_visible="true"
       lpeversion="1" />
    <inkscape:path-effect
       effect="spiro"
       id="path-effect1058"
       is_visible="true"
       lpeversion="1" />
    <inkscape:path-effect
       effect="spiro"
       id="path-effect270"
       is_visible="true"
       lpeversion="1" />
    <inkscape:path-effect
       effect="spiro"
       id="path-effect266"
       is_visible="true"
       lpeversion="1" />
    <inkscape:path-effect
       effect="spiro"
       id="path-effect262"
       is_visible="true"
       lpeversion="1" />
    <inkscape:path-effect
       effect="spiro"
       id="path-effect258"
       is_visible="true"
       lpeversion="1" />
    <inkscape:path-effect
       effect="spiro"
       id="path-effect12986"
       is_visible="true"
       lpeversion="1" />
    <inkscape:path-effect
       effect="spiro"
       id="path-effect25911"
       is_visible="true"
       lpeversion="1" />
    <inkscape:path-effect
       effect="spiro"
       id="path-effect25917"
       is_visible="true"
       lpeversion="1" />
    <inkscape:path-effect
       effect="spiro"
       id="path-effect25923"
       is_visible="true"
       lpeversion="1" />
    <inkscape:path-effect
       effect="spiro"
       id="path-effect25929"
       is_visible="true"
       lpeversion="1" />
  </defs>
  <g
     inkscape:label="Layer 1"
     inkscape:groupmode="layer"
     id="layer1">
    <path
       style="fill:none;stroke:#000000;stroke-width:1.1877px;stroke-linecap:butt;stroke-linejoin:miter;stroke-opacity:1"
       d="m 126.03185,138.96007 c 1.96938,2.77145 4.57522,5.08775 7.55847,6.71859 0.89024,0.48667 1.83584,0.92998 2.51946,1.67967 0.44185,0.48455 0.75367,1.07956 0.94733,1.70607 0.19367,0.62651 0.27199,1.28467 0.27988,1.94037 0.0158,1.31142 -0.24571,2.60819 -0.38737,3.91203 -0.51915,4.77816 0.62562,9.72107 3.19248,13.78452 2.56685,4.06345 6.53876,7.22046 11.07664,8.80413 4.53789,1.58366 9.61162,1.58345 14.14938,-5.8e-4 4.53775,-1.58403 8.5094,-4.74137 11.07593,-8.80502 2.56653,-4.06366 3.7109,-9.00666 3.19136,-13.78478 -0.51954,-4.77812 -2.69954,-9.35965 -6.07947,-12.77673 -3.37993,-3.41708 -7.93736,-5.64703 -12.70951,-6.21876 -4.77216,-0.57174 -9.72737,0.51853 -13.81884,3.04049"
       id="path12984"
       inkscape:path-effect="#path-effect12986"
       inkscape:original-d="m 126.03185,138.96007 c 2.40001,2.83606 4.99704,4.1572 7.55847,6.71859 0.7137,0.71374 1.9596,0.83984 2.51946,1.67967 0.15397,0.23073 3.52009,7.55847 0.83984,7.55847 -3.56534,0 9.361,-15.95673 10.07797,-15.95673" />
    <path
       style="fill:none;stroke:#000000;stroke-width:1.1877px;stroke-linecap:butt;stroke-linejoin:miter;stroke-opacity:1"
       d="m 183.00242,151.57937 c 0.45318,1.10335 0.73744,2.2759 0.83983,3.46429 0.0692,0.80268 0.0558,1.61079 0,2.41451 -0.0439,0.63241 -0.114,1.263 -0.21008,1.88961"
       id="path25909"
       inkscape:path-effect="#path-effect25911"
       inkscape:original-d="m 183.00242,151.57937 c 0.281,1.08596 0.56111,2.31072 0.83983,3.46429 0.27876,1.15356 0.001,1.61085 0,2.41451 -0.001,0.80365 -0.13871,1.26094 -0.21008,1.88961" />
    <path
       style="fill:none;stroke:#000000;stroke-width:1.1877px;stroke-linecap:butt;stroke-linejoin:miter;stroke-opacity:1"
       d="m 182.55083,164.13932 c -0.0528,1.19162 -0.28796,2.37499 -0.6948,3.49625 -0.27479,0.75734 -0.62676,1.48491 -1.01535,2.19065 -0.30577,0.55533 -0.63455,1.09799 -0.98523,1.62611"
       id="path25913"
       inkscape:path-effect="#path-effect25917"
       inkscape:original-d="m 182.55083,164.13932 c -0.20155,1.10342 -0.46259,2.33245 -0.6948,3.49625 -0.23208,1.16385 -0.6763,1.46205 -1.01535,2.19065 -0.33892,0.72869 -0.6561,1.08574 -0.98523,1.62611" />
    <path
       style="fill:none;stroke:#000000;stroke-width:1.1877px;stroke-linecap:butt;stroke-linejoin:miter;stroke-opacity:1"
       d="m 177.81527,174.0446 c -0.61884,1.01969 -1.39365,1.94453 -2.28918,2.73242 -0.60488,0.53218 -1.26314,1.00116 -1.94303,1.43341 -0.53499,0.34012 -1.08408,0.65806 -1.64538,0.95273"
       id="path25919"
       inkscape:path-effect="#path-effect25923"
       inkscape:original-d="m 177.81527,174.0446 c -0.70692,0.87086 -1.52637,1.82332 -2.28918,2.73242 -0.76276,0.90919 -1.29564,0.95727 -1.94303,1.43341 -0.64735,0.47618 -1.09705,0.63693 -1.64538,0.95273" />
    <path
       style="fill:none;stroke:#000000;stroke-width:1.1877px;stroke-linecap:butt;stroke-linejoin:miter;stroke-opacity:1"
       d="m 167.8128,181.11881 c -1.02151,0.61585 -2.13722,1.07511 -3.29627,1.35682 -0.78286,0.19028 -1.58364,0.29972 -2.3865,0.36675 -0.63175,0.0527 -1.26568,0.0794 -1.89963,0.0799"
       id="path25925"
       inkscape:path-effect="#path-effect25929"
       inkscape:original-d="m 167.8128,181.11881 c -1.03048,0.44306 -2.19855,0.90591 -3.29627,1.35682 -1.09777,0.45092 -1.592,0.24645 -2.3865,0.36675 -0.79445,0.1212 -1.26736,0.0548 -1.89963,0.0799" />
    <path
       style="fill:none;stroke:#000000;stroke-width:0.264583px;stroke-linecap:butt;stroke-linejoin:miter;stroke-opacity:1"
       d="m 141.06485,169.59588 c 1.06767,-1.91367 2.9338,-3.3651 5.0514,-3.92886 2.24258,-0.59704 4.63474,-0.21741 6.85817,0.44742 2.22342,0.66482 4.36066,1.60953 6.61221,2.17182 1.88157,0.46989 3.85704,0.66634 5.76543,0.32116 1.90839,-0.34518 3.7488,-1.26499 4.99217,-2.75332 1.29723,-1.5528 1.85961,-3.58966 2.15603,-5.5912 0.29643,-2.00153 0.36368,-4.04116 0.83739,-6.00829 0.65614,-2.72465 2.10168,-5.25435 4.11595,-7.20292"
       id="path260"
       inkscape:path-effect="#path-effect262"
       inkscape:original-d="m 141.06485,169.59588 c 1.68407,-1.27818 3.36787,-2.61898 5.0514,-3.92886 1.68353,-1.30989 8.98052,1.74642 13.47038,2.61924 4.48987,0.87281 7.172,-1.62117 10.7576,-2.43216 3.5856,-0.81098 1.99588,-7.73273 2.99342,-11.59949 0.99754,-3.86677 2.74423,-4.80168 4.11595,-7.20292" />
    <path
       style="fill:none;stroke:#000000;stroke-width:0.264583px;stroke-linecap:butt;stroke-linejoin:miter;stroke-opacity:1"
       d="m 136.9489,157.80929 c 0.76622,-0.60804 1.79339,-0.87502 2.7587,-0.71705 0.96532,0.15797 1.85381,0.73844 2.38624,1.55899 0.42015,0.6475 0.61501,1.41032 0.87875,2.13574 0.13186,0.3627 0.28309,0.72043 0.48747,1.0478 0.20439,0.32737 0.4642,0.62477 0.7853,0.83887 0.39893,0.26599 0.87893,0.39376 1.35758,0.42188 0.47866,0.0281 0.95827,-0.0392 1.42751,-0.13769 0.93848,-0.1971 1.86995,-0.5218 2.82757,-0.47128 0.90762,0.0479 1.79204,0.44893 2.4261,1.10012 0.63405,0.65119 1.01137,1.54598 1.03504,2.45456"
       id="path264"
       inkscape:path-effect="#path-effect266"
       inkscape:original-d="m 136.9489,157.80929 c 1.71524,0.0315 3.39905,0.87334 5.14494,0.84194 1.7459,-0.0315 1.43461,2.68187 2.15152,4.02241 0.71691,1.34053 3.74204,-0.12447 5.61266,-0.18709 1.87062,-0.0626 2.30769,2.37005 3.46114,3.55468"
       sodipodi:nodetypes="ccssc" />
    <path
       id="path272"
       style="fill:none;stroke:#000000;stroke-width:0.0529167;stroke-linecap:butt;stroke-linejoin:miter;stroke-dasharray:none;stroke-opacity:1"
       d="M 159.58667 168.28626 L 159.32116 167.5865 L 159.50045 167.5152 L 159.78547 168.23238 L 159.98106 168.15468 L 159.61832 167.24191 L 159.18834 167.23656 L 159.18834 167.23656 L 157.80644 163.75931 L 157.61336 163.68501 L 157.52396 163.87155 L 158.91456 167.33905 L 158.63386 167.61421 L 158.81869 168.07929 " />
    <path
       id="path1062"
       style="fill:none;stroke:#000000;stroke-width:0.0529167;stroke-linecap:butt;stroke-linejoin:miter;stroke-dasharray:none;stroke-opacity:1"
       d="M 159.06958 168.14971 L 158.90949 167.73743 L 159.07792 167.67053 L 159.287 168.20897 " />
    <path
       id="path1067"
       style="fill:#000000;stroke:#000000;stroke-width:0.0529167;stroke-linecap:butt;stroke-linejoin:miter;stroke-dasharray:none;stroke-opacity:1"
       d="m 165.51071,168.00502 c 0.339,0.49437 1.03974,0.40252 1.02113,0.40641 l 0.13034,-0.53045 v 0 l -0.32527,-0.28125 v 0 l 1.18787,-3.54822 -0.0996,-0.18135 -0.18866,0.0848 -1.17494,3.54639 -0.39199,0.0291 -0.15888,0.47457"
       sodipodi:nodetypes="cccccccccccc" />
    <path
       id="path1069"
       style="fill:none;stroke:#000000;stroke-width:0.0529167;stroke-linecap:butt;stroke-linejoin:miter;stroke-dasharray:none;stroke-opacity:1"
       d="M 159.06958 168.14971 L 158.90949 167.73743 L 159.07792 167.67053 L 159.287 168.20897 " />
    <path
       style="fill:none;stroke:#000000;stroke-width:0.0658092px;stroke-linecap:butt;stroke-linejoin:miter;stroke-opacity:1"
       d="m 147.50236,161.5416 1.00049,1.00049 h 2.65244 l 1.09356,-1.09356 z"
       id="path4521" />
    <path
       style="fill:#000000;stroke:#000000;stroke-width:0.0658092px;stroke-linecap:butt;stroke-linejoin:miter;stroke-opacity:1"
       d="m 148.87512,161.12279 h 2.16384 l -0.58168,-3.04798 z"
       id="path4523" />
    <path
       style="fill:none;stroke:#ffffff;stroke-width:0.0658092px;stroke-linecap:round;stroke-linejoin:miter;stroke-opacity:1;paint-order:normal"
       d="m 150.44708,158.36684 -0.26735,2.74619"
       id="path4525"
       sodipodi:nodetypes="cc" />
    <path
       style="fill:none;stroke:#000000;stroke-width:0.0658092px;stroke-linecap:butt;stroke-linejoin:miter;stroke-opacity:1"
       d="m 149.826,161.12126 0.008,0.35783 0.42776,0.004 -0.19332,-0.36195 z"
       id="path4527" />
    <path
       style="fill:none;stroke:#000000;stroke-width:0.0658092px;stroke-linecap:butt;stroke-linejoin:miter;stroke-opacity:1"
       d="m 147.79826,161.82459 4.13775,-0.0781"
       id="path4529" />
    <path
       style="fill:none;stroke:#000000;stroke-width:0.0658092px;stroke-linecap:butt;stroke-linejoin:miter;stroke-opacity:1"
       d="m 148.06149,162.09605 3.61129,-0.0823"
       id="path4531" />
    <path
       style="fill:none;stroke:#000000;stroke-width:0.0658092px;stroke-linecap:butt;stroke-linejoin:miter;stroke-opacity:1"
       d="m 148.30417,162.3305 3.11359,-0.0617"
       id="path4533" />
    <path
       style="fill:#000000;stroke:#000000;stroke-width:0.145226px;stroke-linecap:round;stroke-linejoin:round;stroke-opacity:1"
       d="m 161.66393,165.59721 0.71883,3.02936 h 1.54035 l 0.87404,-3.26195 z"
       id="path5331" />
    <path
       style="fill:none;stroke:#000000;stroke-width:0.264583px;stroke-linecap:butt;stroke-linejoin:miter;stroke-opacity:1"
       d="m 161.72656,165.86067 c -0.13795,-0.37087 -0.12582,-0.79516 0.0331,-1.15754 0.15347,-0.35001 0.44187,-0.63878 0.79168,-0.79269 0.34981,-0.15391 0.75756,-0.17145 1.11929,-0.0481 0.36173,0.12332 0.67386,0.38626 0.85681,0.7218 0.18295,0.33553 0.23491,0.74034 0.14263,1.1112 -0.0789,0.31714 -0.26162,0.60755 -0.51335,0.81595 -0.25173,0.20841 -0.57113,0.3337 -0.89742,0.35203 -0.32629,0.0183 -0.65773,-0.0704 -0.93121,-0.2493 -0.27349,-0.1789 -0.48758,-0.44702 -0.60151,-0.75332 z"
       id="path5333"
       inkscape:path-effect="#path-effect5335"
       inkscape:original-d="m 161.72656,165.86067 c -0.98143,0.0549 -0.32376,-0.85211 0.0331,-1.15754 1.15823,-0.99137 1.67044,0.6562 2.91041,0.99218 1.23997,0.33598 -1.96206,0.11051 -2.94349,0.16536 z"
       sodipodi:nodetypes="cssc" />
    <path
       style="fill:#000000;stroke:none;stroke-width:0.264583px;stroke-linecap:butt;stroke-linejoin:miter;stroke-opacity:1"
       d="m 157.51803,163.8763 0.28939,-0.12402 1.36426,3.47265 -0.25632,0.0992 z"
       id="path7519" />
    <circle
       style="fill:none;fill-opacity:1;stroke:#000000;stroke-width:0.264583;stroke-linecap:round;stroke-linejoin:round;stroke-dasharray:none;paint-order:normal"
       id="path7573"
       cx="145.91771"
       cy="124.75105"
       r="3.96875" />
    <path
       id="path7575"
       style="fill:#1a1a1a;fill-opacity:1;stroke:#1a1a1a;stroke-width:0.193621;stroke-linecap:round;stroke-linejoin:round;stroke-dasharray:none;paint-order:normal"
       d="m 131.36982,135.15162 a 3.3883699,3.3883699 0 0 0 -1.66355,2.91529 3.3883699,3.3883699 0 0 0 3.38837,3.38837 3.3883699,3.3883699 0 0 0 3.17697,-2.21568 3.3883699,3.3883699 0 0 1 -1.72482,0.47309 3.3883699,3.3883699 0 0 1 -3.38837,-3.38837 3.3883699,3.3883699 0 0 1 0.2114,-1.1727 z" />
    <path
       id="path7624"
       style="fill:none;stroke:#000000;stroke-width:0.264583px;stroke-linecap:butt;stroke-linejoin:miter;stroke-opacity:1"
       d="M 144.98922 139.3809 C 145.03302 139.44398 145.07794 139.50627 145.12396 139.56771 C 145.49907 140.06856 145.94602 140.51551 146.44687 140.89062 " />
    <path
       id="path8416"
       style="fill:none;stroke:#000000;stroke-width:0.264583px;stroke-linecap:butt;stroke-linejoin:miter;stroke-opacity:1"
       d="M 146.05 131.10104 C 145.38051 131.73718 144.83772 132.50614 144.4625 133.35 C 144.00335 134.38262 143.79717 135.53542 143.93333 136.65729 C 143.99617 137.17503 144.13151 137.68234 144.32848 138.16522 " />
    <path
       id="path7628"
       style="fill:none;stroke:#000000;stroke-width:0.264583px;stroke-linecap:butt;stroke-linejoin:miter;stroke-opacity:1"
       d="M 141.73197 137.60353 C 141.85412 137.96571 142.01573 138.31459 142.21354 138.64166 " />
    <path
       id="path8423"
       style="fill:none;stroke:#000000;stroke-width:0.264583px;stroke-linecap:butt;stroke-linejoin:miter;stroke-opacity:1"
       d="M 143.00729 131.10104 C 142.49396 131.8768 142.09172 132.72596 141.81666 133.61458 C 141.55821 134.44952 141.4128 135.33087 141.46299 136.20026 " />
    <path
       id="path7632"
       style="fill:none;stroke:#000000;stroke-width:0.264583px;stroke-linecap:butt;stroke-linejoin:miter;stroke-opacity:1"
       d="M 139.19812 135.45218 C 139.20511 135.94354 139.24011 136.43451 139.30312 136.92187 " />
    <path
       id="path9156"
       style="fill:none;stroke:#000000;stroke-width:0.264583px;stroke-linecap:butt;stroke-linejoin:miter;stroke-opacity:1"
       d="M 140.75833 129.11667 C 140.00241 130.50954 139.50632 132.04289 139.30312 133.61458 C 139.28443 133.75916 139.2682 133.90406 139.25444 134.04919 " />
    <path
       style="fill:#040404;stroke:#000000;stroke-width:0.264583px;stroke-linecap:butt;stroke-linejoin:miter;stroke-opacity:1;fill-opacity:1"
       d="m 155.75132,144.15182 c 3.23427,-0.27536 6.48414,0.0883 9.72861,0.18709 0.28441,0.009 0.57831,0.0137 0.8419,-0.0935 0.23075,-0.0938 0.42372,-0.2708 0.55244,-0.48406 0.12872,-0.21325 0.19499,-0.4612 0.20787,-0.70995 0.0257,-0.49751 -0.15599,-0.9834 -0.38614,-1.42523 -0.33163,-0.63664 -0.79023,-1.23461 -1.42427,-1.57116 -0.31703,-0.16828 -0.67403,-0.26664 -1.0329,-0.26121 -0.35888,0.005 -0.71884,0.11766 -1.00397,0.33566 -0.29578,0.22614 -0.4987,0.55153 -0.76797,0.80868 -0.13463,0.12857 -0.28822,0.24111 -0.46304,0.30512 -0.17481,0.064 -0.37285,0.0763 -0.54633,0.009 -0.18399,-0.0716 -0.32733,-0.22847 -0.40776,-0.40879 -0.0804,-0.18032 -0.10226,-0.38251 -0.0907,-0.57962 0.0232,-0.3942 0.17432,-0.77062 0.2178,-1.16311 0.0535,-0.48283 -0.0632,-0.98316 -0.32671,-1.39129 -0.26345,-0.40814 -0.67206,-0.72087 -1.13549,-0.86651 -0.46344,-0.14565 -0.97826,-0.12267 -1.42604,0.0657 -0.44779,0.18833 -0.82474,0.54089 -1.04063,0.97607 -0.16416,0.33092 -0.23499,0.69949 -0.29044,1.06471 -0.0555,0.36522 -0.0978,0.73492 -0.21109,1.08654 -0.11324,0.35162 -0.30534,0.68985 -0.60433,0.90679 -0.1495,0.10847 -0.32404,0.18431 -0.50705,0.20924 -0.18302,0.0249 -0.37432,-0.002 -0.53861,-0.0868 -0.13333,-0.0685 -0.24629,-0.17258 -0.33777,-0.29132 -0.0915,-0.11874 -0.16237,-0.2521 -0.22386,-0.3888 -0.12298,-0.2734 -0.21121,-0.56473 -0.37381,-0.81659 -0.17606,-0.27271 -0.43633,-0.48905 -0.73392,-0.61872 -0.29759,-0.12967 -0.63119,-0.17308 -0.95304,-0.13084 -0.32185,0.0422 -0.63134,0.16927 -0.89426,0.35966 -0.26292,0.19038 -0.47926,0.44331 -0.63289,0.72926 -0.30726,0.57191 -0.35473,1.26673 -0.17932,1.8918 0.17541,0.62508 0.56304,1.18032 1.05482,1.60416 0.33016,0.28455 0.70989,0.51447 1.12253,0.65481 0.89313,0.30375 1.86637,0.17353 2.80634,0.0935 z"
       id="path10613"
       inkscape:path-effect="#path-effect10615"
       inkscape:original-d="m 155.75132,144.15182 c 0.93517,0.0309 6.486,0.12499 9.72861,0.18709 3.2426,0.0621 0.56153,-0.0621 0.8419,-0.0935 0.28036,-0.0314 0.24971,-1.74589 0.37417,-2.61924 0.12446,-0.87334 -2.67076,-1.39284 -3.46114,-1.49671 -3.08632,-0.40562 -1.06741,1.1228 -1.77734,1.12253 -0.71744,-2.7e-4 0.31208,-1.5588 -0.28063,-2.15152 -0.59272,-0.59271 -3.24261,-0.99753 -3.92887,-1.21607 -0.68626,-0.21853 -0.96635,2.15178 -2.15152,3.1805 -1.18515,1.02873 -0.31155,-1.62117 -0.93544,-1.49671 -0.6239,0.12446 -1.87062,3.18078 -2.33861,3.83532 -0.46798,0.65455 0.74862,0.43681 1.12253,0.65481 0.37392,0.21801 1.87116,0.0626 2.80634,0.0935 z"
       sodipodi:nodetypes="sssssssssssss" />
    <path
       style="fill:#1a1a1a;stroke:#000000;stroke-width:0.26458333;stroke-linecap:butt;stroke-linejoin:miter;stroke-opacity:1;stroke-dasharray:none"
       d="m 168.11628,147.31482 c 1.54491,0.0198 3.08969,0.0495 4.63422,0.0891 0.13546,0.003 0.2754,0.006 0.40104,-0.0445 0.11007,-0.0445 0.20216,-0.12871 0.26357,-0.23029 0.0614,-0.10159 0.093,-0.21976 0.0991,-0.33831 0.0122,-0.2371 -0.0746,-0.46859 -0.18445,-0.67908 -0.15815,-0.30312 -0.37658,-0.58789 -0.67856,-0.74823 -0.15099,-0.0802 -0.32102,-0.12705 -0.49195,-0.1245 -0.17093,0.003 -0.34239,0.056 -0.47821,0.15978 -0.14091,0.1077 -0.23757,0.2627 -0.36583,0.38519 -0.0641,0.0612 -0.13729,0.11486 -0.22056,0.14535 -0.0833,0.0305 -0.1776,0.0363 -0.26024,0.004 -0.0876,-0.0341 -0.15593,-0.10883 -0.19424,-0.19472 -0.0383,-0.0859 -0.0487,-0.18221 -0.0432,-0.2761 0.011,-0.18778 0.083,-0.36709 0.10374,-0.55405 0.0255,-0.22997 -0.0302,-0.46827 -0.15567,-0.66266 -0.1255,-0.19438 -0.32013,-0.34331 -0.54086,-0.41267 -0.22074,-0.0694 -0.46594,-0.0584 -0.67923,0.0313 -0.21329,0.0897 -0.39286,0.25755 -0.49576,0.46479 -0.0782,0.15755 -0.11205,0.33303 -0.13854,0.50693 -0.0265,0.1739 -0.0468,0.34993 -0.10072,0.51735 -0.0539,0.16742 -0.1454,0.32848 -0.28771,0.43186 -0.0712,0.0517 -0.15424,0.0879 -0.24137,0.0998 -0.0871,0.012 -0.17824,-9e-4 -0.25654,-0.041 -0.0636,-0.0325 -0.1175,-0.082 -0.16118,-0.13851 -0.0437,-0.0565 -0.0775,-0.12 -0.10687,-0.18511 -0.0587,-0.13022 -0.10057,-0.26903 -0.17754,-0.38934 -0.084,-0.13133 -0.20845,-0.23585 -0.35102,-0.29894 -0.14257,-0.0631 -0.30266,-0.0849 -0.45736,-0.0656 -0.15469,0.0194 -0.3037,0.0795 -0.43042,0.17033 -0.12673,0.0908 -0.23116,0.21188 -0.30533,0.34902 -0.14832,0.27427 -0.17109,0.60845 -0.0852,0.90819 0.0859,0.29974 0.27532,0.56484 0.51531,0.76391 0.15952,0.13232 0.34144,0.23712 0.53472,0.31192 0.42372,0.16398 0.90311,0.17994 1.3368,0.0445 z"
       id="path10617"
       inkscape:path-effect="#path-effect10621"
       inkscape:original-d="m 168.11628,147.31482 c 0.44547,0.0147 3.0896,0.0595 4.63422,0.0891 1.54461,0.0296 0.26749,-0.0296 0.40104,-0.0445 0.13355,-0.015 0.11895,-0.83166 0.17824,-1.24768 0.0593,-0.41601 -1.27222,-0.66348 -1.64872,-0.71295 -1.47017,-0.19322 -0.50846,0.53484 -0.84663,0.53471 -0.34176,-1.3e-4 0.14866,-0.74253 -0.13368,-1.02487 -0.28234,-0.28234 -1.54462,-0.47518 -1.87152,-0.57928 -0.3269,-0.1041 -0.46032,1.025 -1.02488,1.51503 -0.56454,0.49004 -0.1484,-0.77224 -0.44559,-0.71296 -0.2972,0.0593 -0.89107,1.51517 -1.114,1.82696 -0.22292,0.31179 0.35661,0.20807 0.53472,0.31192 0.17811,0.10385 0.89132,0.0298 1.3368,0.0445 z"
       sodipodi:nodetypes="sssssssssssss" />
    <path
       style="fill:#000000;stroke:#000000;stroke-width:0.175902px;stroke-linecap:butt;stroke-linejoin:miter;stroke-opacity:1"
       d="m 152.08826,162.86789 c 0.2763,0.008 0.55225,0.0279 0.82668,0.0608 0.24011,0.0288 0.4825,0.0673 0.72255,0.038 0.12003,-0.0147 0.23874,-0.0466 0.34583,-0.10278 0.10708,-0.0562 0.20228,-0.13727 0.26707,-0.23936 0.0747,-0.11777 0.10667,-0.26124 0.0936,-0.40011 -0.0131,-0.13888 -0.0703,-0.27259 -0.15815,-0.38095 -0.0878,-0.10835 -0.20557,-0.19144 -0.33541,-0.24239 -0.12985,-0.051 -0.27147,-0.0701 -0.41062,-0.0604 -0.27829,0.0195 -0.54079,0.15386 -0.74641,0.3424 -0.20561,0.18854 -0.3582,0.4287 -0.47795,0.68066 -0.0472,0.0993 -0.0896,0.20079 -0.12718,0.3041 z"
       id="path10623"
       inkscape:path-effect="#path-effect10625"
       inkscape:original-d="m 152.08826,162.86789 c -0.0426,0.1012 0.5513,0.0407 0.82668,0.0608 0.27539,0.0201 1.3568,-0.18229 1.33545,-0.30412 -0.0214,-0.1218 -1.82277,-0.0607 -2.03492,-0.0608 -0.21216,-1.8e-4 -0.0846,0.2029 -0.12718,0.3041 z"
       sodipodi:nodetypes="sscsss" />
    <path
       style="fill:#000000;stroke:#000000;stroke-width:0.175902px;stroke-linecap:butt;stroke-linejoin:miter;stroke-opacity:1"
       d="m 152.96742,163.62682 c 0.22339,0.16277 0.43929,0.33582 0.64679,0.51842 0.18155,0.15977 0.35946,0.32883 0.57388,0.44066 0.10721,0.0559 0.22315,0.0968 0.34321,0.11122 0.12006,0.0144 0.24445,0.001 0.35568,-0.0459 0.12831,-0.0547 0.2359,-0.15484 0.30382,-0.27668 0.0679,-0.12184 0.0965,-0.26446 0.0855,-0.40351 -0.011,-0.13905 -0.0609,-0.27422 -0.13908,-0.38977 -0.0781,-0.11555 -0.18397,-0.21159 -0.30414,-0.28239 -0.24036,-0.14162 -0.53282,-0.17958 -0.80907,-0.1407 -0.27625,0.0389 -0.53804,0.15035 -0.77946,0.29014 -0.0951,0.0551 -0.18762,0.11469 -0.27708,0.17855 z"
       id="path10627"
       inkscape:path-effect="#path-effect10631"
       inkscape:original-d="m 152.96742,163.62682 c -0.0924,0.0593 0.43125,0.34585 0.64679,0.51842 0.21555,0.17258 1.22135,0.61843 1.27277,0.50594 0.0514,-0.1125 -1.46768,-1.08264 -1.64244,-1.20291 -0.17473,-0.12034 -0.18466,0.11928 -0.27708,0.17855 z"
       sodipodi:nodetypes="sscsss" />
    <path
       style="fill:#000000;stroke:#000000;stroke-width:0.14142px;stroke-linecap:butt;stroke-linejoin:miter;stroke-opacity:1"
       d="m 154.90621,162.54056 c 0.20288,0.10828 0.39653,0.23383 0.57817,0.37486 0.1687,0.13098 0.32966,0.27692 0.52355,0.36648 0.0969,0.0448 0.20176,0.0747 0.3085,0.0779 0.10674,0.003 0.21553,-0.0214 0.3057,-0.0786 0.0922,-0.0585 0.16215,-0.14996 0.19847,-0.25291 0.0363,-0.10295 0.0395,-0.2167 0.013,-0.32261 -0.0265,-0.10591 -0.082,-0.20385 -0.15624,-0.28393 -0.0742,-0.0801 -0.16671,-0.14246 -0.26713,-0.18529 -0.20084,-0.0857 -0.42904,-0.0921 -0.64339,-0.0505 -0.21434,0.0416 -0.4171,0.12876 -0.61289,0.22541 -0.0835,0.0412 -0.16609,0.0843 -0.24769,0.12911 z"
       id="path10633"
       inkscape:path-effect="#path-effect10637"
       inkscape:original-d="m 154.90621,162.54056 c -0.0826,0.0428 0.3855,0.25008 0.57817,0.37486 0.19268,0.12479 1.09179,0.44717 1.13775,0.36583 0.0459,-0.0813 -1.31198,-0.78284 -1.4682,-0.8698 -0.15619,-0.087 -0.16507,0.0863 -0.24769,0.12911 z"
       sodipodi:nodetypes="sscsss" />
    <path
       style="fill:#000000;stroke:#000000;stroke-width:0.0643632px;stroke-linecap:butt;stroke-linejoin:miter;stroke-opacity:1"
       d="m 150.28394,164.54511 c 0.0957,0.0461 0.18688,0.10149 0.27193,0.16509 0.0803,0.06 0.15629,0.12811 0.24782,0.16895 0.0458,0.0204 0.0952,0.0337 0.14535,0.0339 0.0501,2.6e-4 0.10092,-0.013 0.14195,-0.0418 0.0406,-0.0285 0.0704,-0.0716 0.0846,-0.11912 0.0142,-0.0476 0.0131,-0.0993 -0.001,-0.14679 -0.0143,-0.0475 -0.0416,-0.0908 -0.0769,-0.12567 -0.0353,-0.0349 -0.0785,-0.0614 -0.12485,-0.0792 -0.0927,-0.0355 -0.1962,-0.0353 -0.29334,-0.0148 -0.0971,0.0204 -0.18905,0.0602 -0.27884,0.10252 -0.0391,0.0184 -0.0779,0.0374 -0.1165,0.0569 z"
       id="path10860"
       inkscape:path-effect="#path-effect10643"
       inkscape:original-d="m 150.28394,164.54511 c -0.0388,0.0188 0.18131,0.11014 0.27193,0.16509 0.0906,0.055 0.5135,0.19694 0.53512,0.16111 0.0216,-0.0358 -0.61707,-0.34476 -0.69054,-0.38306 -0.0735,-0.0383 -0.0776,0.038 -0.1165,0.0569 z"
       sodipodi:nodetypes="sscsss"
       inkscape:spray-origin="#path10639" />
    <path
       style="fill:#000000;stroke:#000000;stroke-width:0.0643632px;stroke-linecap:butt;stroke-linejoin:miter;stroke-opacity:1"
       d="m 150.73757,163.38082 c 0.0957,0.0461 0.18688,0.10149 0.27193,0.16509 0.0803,0.06 0.15629,0.12811 0.24782,0.16895 0.0458,0.0204 0.0952,0.0337 0.14535,0.0339 0.0501,2.6e-4 0.10092,-0.013 0.14195,-0.0418 0.0406,-0.0285 0.0704,-0.0716 0.0846,-0.11912 0.0142,-0.0476 0.0131,-0.0993 -0.001,-0.14679 -0.0143,-0.0475 -0.0416,-0.0908 -0.0769,-0.12567 -0.0353,-0.0349 -0.0785,-0.0614 -0.12485,-0.0792 -0.0927,-0.0355 -0.1962,-0.0353 -0.29334,-0.0148 -0.0971,0.0204 -0.18905,0.0602 -0.27884,0.10252 -0.0391,0.0184 -0.0779,0.0374 -0.1165,0.0569 z"
       id="path10862"
       inkscape:path-effect="#path-effect10643"
       inkscape:original-d="m 150.73757,163.38082 c -0.0388,0.0188 0.18131,0.11014 0.27193,0.16509 0.0906,0.055 0.5135,0.19694 0.53512,0.16111 0.0216,-0.0358 -0.61707,-0.34476 -0.69054,-0.38306 -0.0735,-0.0383 -0.0776,0.038 -0.1165,0.0569 z"
       sodipodi:nodetypes="sscsss"
       inkscape:spray-origin="#path10639" />
    <path
       style="fill:#000000;stroke:#000000;stroke-width:0.0643632px;stroke-linecap:butt;stroke-linejoin:miter;stroke-opacity:1"
       d="m 146.6465,164.92912 c 0.0957,0.0461 0.18688,0.10149 0.27193,0.16509 0.0803,0.06 0.15629,0.12811 0.24782,0.16895 0.0458,0.0204 0.0952,0.0337 0.14535,0.0339 0.0501,2.6e-4 0.10092,-0.013 0.14195,-0.0418 0.0406,-0.0285 0.0704,-0.0716 0.0846,-0.11912 0.0142,-0.0476 0.0131,-0.0993 -0.001,-0.14679 -0.0143,-0.0475 -0.0416,-0.0908 -0.0769,-0.12567 -0.0353,-0.0349 -0.0785,-0.0614 -0.12485,-0.0792 -0.0927,-0.0355 -0.1962,-0.0353 -0.29334,-0.0148 -0.0971,0.0204 -0.18905,0.0602 -0.27884,0.10252 -0.0391,0.0184 -0.0779,0.0374 -0.1165,0.0569 z"
       id="path10864"
       inkscape:path-effect="#path-effect10643"
       inkscape:original-d="m 146.6465,164.92912 c -0.0388,0.0188 0.18131,0.11014 0.27193,0.16509 0.0906,0.055 0.5135,0.19694 0.53512,0.16111 0.0216,-0.0358 -0.61707,-0.34476 -0.69054,-0.38306 -0.0735,-0.0383 -0.0776,0.038 -0.1165,0.0569 z"
       sodipodi:nodetypes="sscsss"
       inkscape:spray-origin="#path10639" />
    <path
       style="fill:#000000;stroke:#000000;stroke-width:0.0643632px;stroke-linecap:butt;stroke-linejoin:miter;stroke-opacity:1"
       d="m 143.97879,163.38103 c 0.0957,0.0461 0.18688,0.10149 0.27193,0.16509 0.0803,0.06 0.15629,0.12811 0.24782,0.16895 0.0458,0.0204 0.0952,0.0337 0.14535,0.0339 0.0501,2.6e-4 0.10092,-0.013 0.14195,-0.0418 0.0406,-0.0285 0.0704,-0.0716 0.0846,-0.11912 0.0142,-0.0476 0.0131,-0.0993 -0.001,-0.14679 -0.0143,-0.0475 -0.0416,-0.0908 -0.0769,-0.12567 -0.0353,-0.0349 -0.0785,-0.0614 -0.12485,-0.0792 -0.0927,-0.0355 -0.1962,-0.0353 -0.29334,-0.0148 -0.0971,0.0204 -0.18905,0.0602 -0.27884,0.10252 -0.0391,0.0184 -0.0779,0.0374 -0.1165,0.0569 z"
       id="path10866"
       inkscape:path-effect="#path-effect10643"
       inkscape:original-d="m 143.97879,163.38103 c -0.0388,0.0188 0.18131,0.11014 0.27193,0.16509 0.0906,0.055 0.5135,0.19694 0.53512,0.16111 0.0216,-0.0358 -0.61707,-0.34476 -0.69054,-0.38306 -0.0735,-0.0383 -0.0776,0.038 -0.1165,0.0569 z"
       sodipodi:nodetypes="sscsss"
       inkscape:spray-origin="#path10639" />
    <path
       style="fill:#000000;stroke:#000000;stroke-width:0.0643632px;stroke-linecap:butt;stroke-linejoin:miter;stroke-opacity:1"
       d="m 141.7415,162.34996 c 0.0957,0.0461 0.18688,0.10149 0.27193,0.16509 0.0803,0.06 0.15629,0.12811 0.24782,0.16895 0.0458,0.0204 0.0952,0.0337 0.14535,0.0339 0.0501,2.6e-4 0.10092,-0.013 0.14195,-0.0418 0.0406,-0.0285 0.0704,-0.0716 0.0846,-0.11912 0.0142,-0.0476 0.0131,-0.0993 -0.001,-0.14679 -0.0143,-0.0475 -0.0416,-0.0908 -0.0769,-0.12567 -0.0353,-0.0349 -0.0785,-0.0614 -0.12485,-0.0792 -0.0927,-0.0355 -0.1962,-0.0353 -0.29334,-0.0148 -0.0971,0.0204 -0.18905,0.0602 -0.27884,0.10252 -0.0391,0.0184 -0.0779,0.0374 -0.1165,0.0569 z"
       id="path10868"
       inkscape:path-effect="#path-effect10643"
       inkscape:original-d="m 141.7415,162.34996 c -0.0388,0.0188 0.18131,0.11014 0.27193,0.16509 0.0906,0.055 0.5135,0.19694 0.53512,0.16111 0.0216,-0.0358 -0.61707,-0.34476 -0.69054,-0.38306 -0.0735,-0.0383 -0.0776,0.038 -0.1165,0.0569 z"
       sodipodi:nodetypes="sscsss"
       inkscape:spray-origin="#path10639" />
    <path
       style="fill:#000000;stroke:#000000;stroke-width:0.0643632px;stroke-linecap:butt;stroke-linejoin:miter;stroke-opacity:1"
       d="m 142.5475,166.05926 c 0.0957,0.0461 0.18688,0.10149 0.27193,0.16509 0.0803,0.06 0.15629,0.12811 0.24782,0.16895 0.0458,0.0204 0.0952,0.0337 0.14535,0.0339 0.0501,2.6e-4 0.10092,-0.013 0.14195,-0.0418 0.0406,-0.0285 0.0704,-0.0716 0.0847,-0.11912 0.0142,-0.0476 0.0131,-0.0993 -0.001,-0.14679 -0.0143,-0.0475 -0.0416,-0.0908 -0.0769,-0.12567 -0.0353,-0.0349 -0.0785,-0.0614 -0.12485,-0.0792 -0.0927,-0.0355 -0.1962,-0.0353 -0.29334,-0.0148 -0.0971,0.0204 -0.18905,0.0602 -0.27884,0.10252 -0.0391,0.0184 -0.0779,0.0374 -0.1165,0.0569 z"
       id="path10870"
       inkscape:path-effect="#path-effect10643"
       inkscape:original-d="m 142.5475,166.05926 c -0.0388,0.0188 0.18131,0.11014 0.27193,0.16509 0.0906,0.055 0.5135,0.19694 0.53512,0.16111 0.0216,-0.0358 -0.61707,-0.34476 -0.69054,-0.38306 -0.0735,-0.0383 -0.0776,0.038 -0.1165,0.0569 z"
       sodipodi:nodetypes="sscsss"
       inkscape:spray-origin="#path10639" />
    <path
       style="fill:#000000;stroke:#000000;stroke-width:0.0643632px;stroke-linecap:butt;stroke-linejoin:miter;stroke-opacity:1"
       d="m 140.32683,166.07263 c 0.0957,0.0461 0.18688,0.10149 0.27193,0.16509 0.0803,0.06 0.15629,0.12811 0.24782,0.16895 0.0458,0.0204 0.0952,0.0337 0.14535,0.0339 0.0501,2.6e-4 0.10092,-0.013 0.14195,-0.0418 0.0406,-0.0285 0.0704,-0.0716 0.0846,-0.11912 0.0142,-0.0476 0.0131,-0.0993 -0.001,-0.14679 -0.0143,-0.0475 -0.0416,-0.0908 -0.0769,-0.12567 -0.0353,-0.0349 -0.0785,-0.0614 -0.12485,-0.0792 -0.0927,-0.0355 -0.1962,-0.0353 -0.29334,-0.0148 -0.0971,0.0204 -0.18905,0.0602 -0.27884,0.10252 -0.0391,0.0184 -0.0779,0.0374 -0.1165,0.0569 z"
       id="path10886"
       inkscape:path-effect="#path-effect10643"
       inkscape:original-d="m 140.32683,166.07263 c -0.0388,0.0188 0.18131,0.11014 0.27193,0.16509 0.0906,0.055 0.5135,0.19694 0.53512,0.16111 0.0216,-0.0358 -0.61707,-0.34476 -0.69054,-0.38306 -0.0735,-0.0383 -0.0776,0.038 -0.1165,0.0569 z"
       sodipodi:nodetypes="sscsss"
       inkscape:spray-origin="#path10639" />
    <path
       style="fill:#000000;stroke:#000000;stroke-width:0.0643632px;stroke-linecap:butt;stroke-linejoin:miter;stroke-opacity:1"
       d="m 140.72703,167.82391 c 0.0957,0.0461 0.18688,0.10149 0.27193,0.16509 0.0803,0.06 0.15629,0.12811 0.24782,0.16895 0.0458,0.0204 0.0952,0.0337 0.14535,0.0339 0.0501,2.6e-4 0.10092,-0.013 0.14195,-0.0418 0.0406,-0.0285 0.0704,-0.0716 0.0847,-0.11912 0.0142,-0.0476 0.0131,-0.0993 -0.001,-0.14679 -0.0143,-0.0475 -0.0416,-0.0908 -0.0769,-0.12567 -0.0353,-0.0349 -0.0785,-0.0614 -0.12485,-0.0792 -0.0927,-0.0355 -0.1962,-0.0353 -0.29334,-0.0148 -0.0971,0.0204 -0.18905,0.0602 -0.27884,0.10252 -0.0391,0.0184 -0.0779,0.0374 -0.1165,0.0569 z"
       id="path10888"
       inkscape:path-effect="#path-effect10643"
       inkscape:original-d="m 140.72703,167.82391 c -0.0388,0.0188 0.18131,0.11014 0.27193,0.16509 0.0906,0.055 0.5135,0.19694 0.53512,0.16111 0.0216,-0.0358 -0.61707,-0.34476 -0.69054,-0.38306 -0.0735,-0.0383 -0.0776,0.038 -0.1165,0.0569 z"
       sodipodi:nodetypes="sscsss"
       inkscape:spray-origin="#path10639" />
    <path
       style="fill:#000000;stroke:#000000;stroke-width:0.0643632px;stroke-linecap:butt;stroke-linejoin:miter;stroke-opacity:1"
       d="m 138.49192,158.34056 c 0.0957,0.0461 0.18688,0.10149 0.27193,0.16509 0.0803,0.06 0.15629,0.12811 0.24782,0.16895 0.0458,0.0204 0.0952,0.0337 0.14535,0.0339 0.0501,2.6e-4 0.10092,-0.013 0.14195,-0.0418 0.0406,-0.0285 0.0704,-0.0716 0.0847,-0.11912 0.0142,-0.0476 0.0131,-0.0993 -0.001,-0.14679 -0.0143,-0.0475 -0.0416,-0.0908 -0.0769,-0.12567 -0.0353,-0.0349 -0.0785,-0.0614 -0.12485,-0.0792 -0.0927,-0.0355 -0.1962,-0.0353 -0.29334,-0.0148 -0.0971,0.0204 -0.18905,0.0602 -0.27884,0.10252 -0.0391,0.0184 -0.0779,0.0374 -0.1165,0.0569 z"
       id="path10890"
       inkscape:path-effect="#path-effect10643"
       inkscape:original-d="m 138.49192,158.34056 c -0.0388,0.0188 0.18131,0.11014 0.27193,0.16509 0.0906,0.055 0.5135,0.19694 0.53512,0.16111 0.0216,-0.0358 -0.61707,-0.34476 -0.69054,-0.38306 -0.0735,-0.0383 -0.0776,0.038 -0.1165,0.0569 z"
       sodipodi:nodetypes="sscsss"
       inkscape:spray-origin="#path10639" />
    <path
       style="fill:#000000;stroke:#000000;stroke-width:0.0643632px;stroke-linecap:butt;stroke-linejoin:miter;stroke-opacity:1"
       d="m 140.91292,159.34498 c 0.0957,0.0461 0.18688,0.10149 0.27193,0.16509 0.0803,0.06 0.15629,0.12811 0.24782,0.16895 0.0458,0.0204 0.0952,0.0337 0.14535,0.0339 0.0501,2.6e-4 0.10092,-0.013 0.14195,-0.0418 0.0406,-0.0285 0.0704,-0.0716 0.0847,-0.11912 0.0142,-0.0476 0.0131,-0.0993 -0.001,-0.14679 -0.0143,-0.0475 -0.0416,-0.0908 -0.0769,-0.12567 -0.0353,-0.0349 -0.0785,-0.0614 -0.12485,-0.0792 -0.0927,-0.0355 -0.1962,-0.0353 -0.29334,-0.0148 -0.0971,0.0204 -0.18905,0.0602 -0.27884,0.10252 -0.0391,0.0184 -0.0779,0.0374 -0.1165,0.0569 z"
       id="path10892"
       inkscape:path-effect="#path-effect10643"
       inkscape:original-d="m 140.91292,159.34498 c -0.0388,0.0188 0.18131,0.11014 0.27193,0.16509 0.0906,0.055 0.5135,0.19694 0.53512,0.16111 0.0216,-0.0358 -0.61707,-0.34476 -0.69054,-0.38306 -0.0735,-0.0383 -0.0776,0.038 -0.1165,0.0569 z"
       sodipodi:nodetypes="sscsss"
       inkscape:spray-origin="#path10639" />
    <path
       style="fill:#000000;stroke:#000000;stroke-width:0.0643632px;stroke-linecap:butt;stroke-linejoin:miter;stroke-opacity:1"
       d="m 138.3098,162.68228 c 0.0957,0.0461 0.18688,0.10149 0.27193,0.16509 0.0803,0.06 0.15629,0.12811 0.24782,0.16895 0.0458,0.0204 0.0952,0.0337 0.14535,0.0339 0.0501,2.6e-4 0.10092,-0.013 0.14195,-0.0418 0.0406,-0.0285 0.0704,-0.0716 0.0847,-0.11912 0.0142,-0.0476 0.0131,-0.0993 -0.001,-0.14679 -0.0143,-0.0475 -0.0416,-0.0908 -0.0769,-0.12567 -0.0353,-0.0349 -0.0785,-0.0614 -0.12485,-0.0792 -0.0927,-0.0355 -0.1962,-0.0353 -0.29334,-0.0148 -0.0971,0.0204 -0.18905,0.0602 -0.27884,0.10252 -0.0391,0.0184 -0.0779,0.0374 -0.1165,0.0569 z"
       id="path10894"
       inkscape:path-effect="#path-effect10643"
       inkscape:original-d="m 138.3098,162.68228 c -0.0388,0.0188 0.18131,0.11014 0.27193,0.16509 0.0906,0.055 0.5135,0.19694 0.53512,0.16111 0.0216,-0.0358 -0.61707,-0.34476 -0.69054,-0.38306 -0.0735,-0.0383 -0.0776,0.038 -0.1165,0.0569 z"
       sodipodi:nodetypes="sscsss"
       inkscape:spray-origin="#path10639" />
    <path
       style="fill:#000000;stroke:#000000;stroke-width:0.0643632px;stroke-linecap:butt;stroke-linejoin:miter;stroke-opacity:1"
       d="m 138.42619,160.16135 c 0.0957,0.0461 0.18688,0.10149 0.27193,0.16509 0.0803,0.06 0.15629,0.12811 0.24782,0.16895 0.0458,0.0204 0.0952,0.0337 0.14535,0.0339 0.0501,2.6e-4 0.10092,-0.013 0.14195,-0.0418 0.0406,-0.0285 0.0704,-0.0716 0.0847,-0.11912 0.0142,-0.0476 0.0131,-0.0993 -0.001,-0.14679 -0.0143,-0.0475 -0.0416,-0.0908 -0.0769,-0.12567 -0.0353,-0.0349 -0.0785,-0.0614 -0.12485,-0.0792 -0.0927,-0.0355 -0.1962,-0.0353 -0.29334,-0.0148 -0.0971,0.0204 -0.18905,0.0602 -0.27884,0.10252 -0.0391,0.0184 -0.0779,0.0374 -0.1165,0.0569 z"
       id="path10896"
       inkscape:path-effect="#path-effect10643"
       inkscape:original-d="m 138.42619,160.16135 c -0.0388,0.0188 0.18131,0.11014 0.27193,0.16509 0.0906,0.055 0.5135,0.19694 0.53512,0.16111 0.0216,-0.0358 -0.61707,-0.34476 -0.69054,-0.38306 -0.0735,-0.0383 -0.0776,0.038 -0.1165,0.0569 z"
       sodipodi:nodetypes="sscsss"
       inkscape:spray-origin="#path10639" />
    <path
       style="fill:#000000;stroke:#000000;stroke-width:0.0643632px;stroke-linecap:butt;stroke-linejoin:miter;stroke-opacity:1"
       d="m 140.4632,160.64506 c 0.0957,0.0461 0.18688,0.10149 0.27193,0.16509 0.0803,0.06 0.15629,0.12811 0.24782,0.16895 0.0458,0.0204 0.0952,0.0337 0.14535,0.0339 0.0501,2.6e-4 0.10092,-0.013 0.14195,-0.0418 0.0406,-0.0285 0.0704,-0.0716 0.0846,-0.11912 0.0142,-0.0476 0.0131,-0.0993 -0.001,-0.14679 -0.0143,-0.0475 -0.0416,-0.0908 -0.0769,-0.12567 -0.0353,-0.0349 -0.0785,-0.0614 -0.12485,-0.0792 -0.0927,-0.0355 -0.1962,-0.0353 -0.29334,-0.0148 -0.0971,0.0204 -0.18905,0.0602 -0.27884,0.10252 -0.0391,0.0184 -0.0779,0.0374 -0.1165,0.0569 z"
       id="path10906"
       inkscape:path-effect="#path-effect10643"
       inkscape:original-d="m 140.4632,160.64506 c -0.0388,0.0188 0.18131,0.11014 0.27193,0.16509 0.0906,0.055 0.5135,0.19694 0.53512,0.16111 0.0216,-0.0358 -0.61707,-0.34476 -0.69054,-0.38306 -0.0735,-0.0383 -0.0776,0.038 -0.1165,0.0569 z"
       sodipodi:nodetypes="sscsss"
       inkscape:spray-origin="#path10639" />
    <path
       style="fill:#000000;stroke:#000000;stroke-width:0.0643632px;stroke-linecap:butt;stroke-linejoin:miter;stroke-opacity:1"
       d="m 139.77742,162.08231 c 0.0957,0.0461 0.18688,0.10149 0.27193,0.16509 0.0803,0.06 0.15629,0.12811 0.24782,0.16895 0.0458,0.0204 0.0952,0.0337 0.14535,0.0339 0.0501,2.6e-4 0.10092,-0.013 0.14195,-0.0418 0.0406,-0.0285 0.0704,-0.0716 0.0846,-0.11912 0.0142,-0.0476 0.0131,-0.0993 -0.001,-0.14679 -0.0143,-0.0475 -0.0416,-0.0908 -0.0769,-0.12567 -0.0353,-0.0349 -0.0785,-0.0614 -0.12485,-0.0792 -0.0927,-0.0355 -0.1962,-0.0353 -0.29334,-0.0148 -0.0971,0.0204 -0.18905,0.0602 -0.27884,0.10252 -0.0391,0.0184 -0.0779,0.0374 -0.1165,0.0569 z"
       id="path10908"
       inkscape:path-effect="#path-effect10643"
       inkscape:original-d="m 139.77742,162.08231 c -0.0388,0.0188 0.18131,0.11014 0.27193,0.16509 0.0906,0.055 0.5135,0.19694 0.53512,0.16111 0.0216,-0.0358 -0.61707,-0.34476 -0.69054,-0.38306 -0.0735,-0.0383 -0.0776,0.038 -0.1165,0.0569 z"
       sodipodi:nodetypes="sscsss"
       inkscape:spray-origin="#path10639" />
    <path
       style="fill:#000000;stroke:#000000;stroke-width:0.0643632px;stroke-linecap:butt;stroke-linejoin:miter;stroke-opacity:1"
       d="m 143.48138,164.84425 c 0.0957,0.0461 0.18688,0.10149 0.27193,0.16509 0.0803,0.06 0.15629,0.12811 0.24782,0.16895 0.0458,0.0204 0.0952,0.0337 0.14535,0.0339 0.0501,2.6e-4 0.10092,-0.013 0.14195,-0.0418 0.0406,-0.0285 0.0704,-0.0716 0.0846,-0.11912 0.0142,-0.0476 0.0131,-0.0993 -0.001,-0.14679 -0.0143,-0.0475 -0.0416,-0.0908 -0.0769,-0.12567 -0.0353,-0.0349 -0.0785,-0.0614 -0.12485,-0.0792 -0.0927,-0.0355 -0.1962,-0.0353 -0.29334,-0.0148 -0.0971,0.0204 -0.18905,0.0602 -0.27884,0.10252 -0.0391,0.0184 -0.0779,0.0374 -0.1165,0.0569 z"
       id="path10910"
       inkscape:path-effect="#path-effect10643"
       inkscape:original-d="m 143.48138,164.84425 c -0.0388,0.0188 0.18131,0.11014 0.27193,0.16509 0.0906,0.055 0.5135,0.19694 0.53512,0.16111 0.0216,-0.0358 -0.61707,-0.34476 -0.69054,-0.38306 -0.0735,-0.0383 -0.0776,0.038 -0.1165,0.0569 z"
       sodipodi:nodetypes="sscsss"
       inkscape:spray-origin="#path10639" />
    <path
       style="fill:#000000;stroke:#000000;stroke-width:0.0643632px;stroke-linecap:butt;stroke-linejoin:miter;stroke-opacity:1"
       d="m 145.94732,163.88138 c 0.0957,0.0461 0.18688,0.10149 0.27193,0.16509 0.0803,0.06 0.15629,0.12811 0.24782,0.16895 0.0458,0.0204 0.0952,0.0337 0.14535,0.0339 0.0501,2.6e-4 0.10092,-0.013 0.14195,-0.0418 0.0406,-0.0285 0.0704,-0.0716 0.0847,-0.11912 0.0142,-0.0476 0.0131,-0.0993 -0.001,-0.14679 -0.0143,-0.0475 -0.0416,-0.0908 -0.0769,-0.12567 -0.0353,-0.0349 -0.0785,-0.0614 -0.12485,-0.0792 -0.0927,-0.0355 -0.1962,-0.0353 -0.29334,-0.0148 -0.0971,0.0204 -0.18905,0.0602 -0.27884,0.10252 -0.0391,0.0184 -0.0779,0.0374 -0.1165,0.0569 z"
       id="path10912"
       inkscape:path-effect="#path-effect10643"
       inkscape:original-d="m 145.94732,163.88138 c -0.0388,0.0188 0.18131,0.11014 0.27193,0.16509 0.0906,0.055 0.5135,0.19694 0.53512,0.16111 0.0216,-0.0358 -0.61707,-0.34476 -0.69054,-0.38306 -0.0735,-0.0383 -0.0776,0.038 -0.1165,0.0569 z"
       sodipodi:nodetypes="sscsss"
       inkscape:spray-origin="#path10639" />
    <path
       style="fill:#000000;stroke:#000000;stroke-width:0.0643632px;stroke-linecap:butt;stroke-linejoin:miter;stroke-opacity:1"
       d="m 148.64317,163.51487 c 0.0957,0.0461 0.18688,0.10149 0.27193,0.16509 0.0803,0.06 0.15629,0.12811 0.24782,0.16895 0.0458,0.0204 0.0952,0.0337 0.14535,0.0339 0.0501,2.6e-4 0.10092,-0.013 0.14195,-0.0418 0.0406,-0.0285 0.0704,-0.0716 0.0847,-0.11912 0.0142,-0.0476 0.0131,-0.0993 -0.001,-0.14679 -0.0143,-0.0475 -0.0416,-0.0908 -0.0769,-0.12567 -0.0353,-0.0349 -0.0785,-0.0614 -0.12485,-0.0792 -0.0927,-0.0355 -0.1962,-0.0353 -0.29334,-0.0148 -0.0971,0.0204 -0.18905,0.0602 -0.27884,0.10252 -0.0391,0.0184 -0.0779,0.0374 -0.1165,0.0569 z"
       id="path10914"
       inkscape:path-effect="#path-effect10643"
       inkscape:original-d="m 148.64317,163.51487 c -0.0388,0.0188 0.18131,0.11014 0.27193,0.16509 0.0906,0.055 0.5135,0.19694 0.53512,0.16111 0.0216,-0.0358 -0.61707,-0.34476 -0.69054,-0.38306 -0.0735,-0.0383 -0.0776,0.038 -0.1165,0.0569 z"
       sodipodi:nodetypes="sscsss"
       inkscape:spray-origin="#path10639" />
    <path
       style="fill:#000000;stroke:#000000;stroke-width:0.0643632px;stroke-linecap:butt;stroke-linejoin:miter;stroke-opacity:1"
       d="m 139.3775,164.52106 c 0.0957,0.0461 0.18688,0.10149 0.27193,0.16509 0.0803,0.06 0.15629,0.12811 0.24782,0.16895 0.0458,0.0204 0.0952,0.0337 0.14535,0.0339 0.0501,2.6e-4 0.10092,-0.013 0.14195,-0.0418 0.0406,-0.0285 0.0704,-0.0716 0.0847,-0.11912 0.0142,-0.0476 0.0131,-0.0993 -0.001,-0.14679 -0.0143,-0.0475 -0.0416,-0.0908 -0.0769,-0.12567 -0.0353,-0.0349 -0.0785,-0.0614 -0.12485,-0.0792 -0.0927,-0.0355 -0.1962,-0.0353 -0.29334,-0.0148 -0.0971,0.0204 -0.18905,0.0602 -0.27884,0.10252 -0.0391,0.0184 -0.0779,0.0374 -0.1165,0.0569 z"
       id="path10916"
       inkscape:path-effect="#path-effect10643"
       inkscape:original-d="m 139.3775,164.52106 c -0.0388,0.0188 0.18131,0.11014 0.27193,0.16509 0.0906,0.055 0.5135,0.19694 0.53512,0.16111 0.0216,-0.0358 -0.61707,-0.34476 -0.69054,-0.38306 -0.0735,-0.0383 -0.0776,0.038 -0.1165,0.0569 z"
       sodipodi:nodetypes="sscsss"
       inkscape:spray-origin="#path10639" />
    <path
       style="fill:#000000;stroke:#000000;stroke-width:0.0643632px;stroke-linecap:butt;stroke-linejoin:miter;stroke-opacity:1"
       d="m 141.16503,163.75383 c 0.0957,0.0461 0.18688,0.10149 0.27193,0.16509 0.0803,0.06 0.15629,0.12811 0.24782,0.16895 0.0458,0.0204 0.0952,0.0337 0.14535,0.0339 0.0501,2.6e-4 0.10092,-0.013 0.14195,-0.0418 0.0406,-0.0285 0.0704,-0.0716 0.0846,-0.11912 0.0142,-0.0476 0.0131,-0.0993 -0.001,-0.14679 -0.0143,-0.0475 -0.0416,-0.0908 -0.0769,-0.12567 -0.0353,-0.0349 -0.0785,-0.0614 -0.12485,-0.0792 -0.0927,-0.0355 -0.1962,-0.0353 -0.29334,-0.0148 -0.0971,0.0204 -0.18905,0.0602 -0.27884,0.10252 -0.0391,0.0184 -0.0779,0.0374 -0.1165,0.0569 z"
       id="path10918"
       inkscape:path-effect="#path-effect10643"
       inkscape:original-d="m 141.16503,163.75383 c -0.0388,0.0188 0.18131,0.11014 0.27193,0.16509 0.0906,0.055 0.5135,0.19694 0.53512,0.16111 0.0216,-0.0358 -0.61707,-0.34476 -0.69054,-0.38306 -0.0735,-0.0383 -0.0776,0.038 -0.1165,0.0569 z"
       sodipodi:nodetypes="sscsss"
       inkscape:spray-origin="#path10639" />
    <path
       style="fill:none;stroke:#000000;stroke-width:0.264583px;stroke-linecap:butt;stroke-linejoin:miter;stroke-opacity:1"
       d="m 142.93574,169.12815 c 0.67729,-1.19218 1.85252,-2.09089 3.18051,-2.43215 0.92813,-0.23851 1.90908,-0.2119 2.8525,-0.0437 0.94341,0.16814 1.85616,0.47416 2.76016,0.79211 1.95593,0.68792 3.89042,1.43676 5.79975,2.24506"
       id="path10920"
       inkscape:path-effect="#path-effect10922"
       inkscape:original-d="m 142.93574,169.12815 c 0.99807,-0.74809 2.1206,-1.62117 3.18051,-2.43215 1.0599,-0.81098 3.74204,0.49917 5.61266,0.74836 1.87062,0.24918 3.86676,1.49697 5.79975,2.24506" />
    <path
       style="fill:none;stroke:#000000;stroke-width:0.264583px;stroke-linecap:butt;stroke-linejoin:miter;stroke-opacity:1"
       d="m 143.49701,170.25069 c 0.61697,-1.19981 1.84336,-2.0655 3.1805,-2.24507 1.33512,-0.1793 2.66356,0.2861 3.92887,0.74836 1.68655,0.61616 3.37037,1.23979 5.05139,1.87088"
       id="path10924"
       inkscape:path-effect="#path-effect10926"
       inkscape:original-d="m 143.49701,170.25069 c 1.06043,-0.81046 2.1206,-1.49645 3.1805,-2.24507 1.05991,-0.74862 2.61951,0.49917 3.92887,0.74836 1.30935,0.24918 3.36786,1.24752 5.05139,1.87088" />
    <path
       style="fill:none;stroke:#000000;stroke-width:0.264583px;stroke-linecap:butt;stroke-linejoin:miter;stroke-opacity:1"
       d="m 164.26385,170.25069 c 0.31087,-0.067 0.62273,-0.12935 0.93544,-0.18709 1.99444,-0.36825 4.1008,-0.57612 5.79975,-1.6838 0.9184,-0.59878 1.67352,-1.44539 2.16383,-2.426 0.4903,-0.98061 0.71452,-2.09267 0.6425,-3.18666"
       id="path10928"
       inkscape:path-effect="#path-effect10930"
       inkscape:original-d="m 164.26385,170.25069 c 0.24971,-0.0621 0.62389,-0.12447 0.93544,-0.18709 0.31155,-0.0626 3.86677,-1.12227 5.79975,-1.6838 1.93299,-0.56153 1.87115,-3.74151 2.80633,-5.61266" />
    <path
       style="fill:none;stroke:#000000;stroke-width:0.264583px;stroke-linecap:butt;stroke-linejoin:miter;stroke-opacity:1"
       d="m 167.63144,171.18613 c 2.18828,-0.18685 4.29524,-1.20635 5.79975,-2.80633 0.94623,-1.00627 1.65647,-2.23305 2.05798,-3.55469"
       id="path10932"
       inkscape:path-effect="#path-effect10934"
       inkscape:original-d="m 167.63144,171.18613 c 1.99588,-0.87282 3.86677,-1.87062 5.79975,-2.80633 1.93299,-0.93571 1.37225,-2.36953 2.05798,-3.55469" />
    <path
       style="fill:none;stroke:#000000;stroke-width:0.264583px;stroke-linecap:butt;stroke-linejoin:miter;stroke-opacity:1"
       d="m 177.17297,150.79346 c -0.69556,1.11483 -1.26182,2.31027 -1.6838,3.55469 -0.35029,1.03302 -0.60127,2.09968 -0.74836,3.18051"
       id="path10936"
       inkscape:path-effect="#path-effect10938"
       inkscape:original-d="m 177.17297,150.79346 c -0.561,1.18517 -1.12227,2.37006 -1.6838,3.55469 -0.56153,1.18463 -0.49864,2.1206 -0.74836,3.18051" />
    <path
       style="fill:none;stroke:#000000;stroke-width:0.264583px;stroke-linecap:butt;stroke-linejoin:miter;stroke-opacity:1"
       d="m 157.15448,173.99246 c -0.1,0.53751 -0.003,1.1094 0.26802,1.5841 0.27125,0.47469 0.71484,0.8484 1.22869,1.03514 0.65726,0.23885 1.40111,0.16804 2.04835,-0.0968 0.64725,-0.26479 1.20644,-0.711 1.69343,-1.21287 0.41198,-0.42457 0.78324,-0.90008 1.00955,-1.44668 0.22631,-0.5466 0.29817,-1.17197 0.11298,-1.73383 -0.16386,-0.49713 -0.52517,-0.92192 -0.97833,-1.18391 -0.45315,-0.26199 -0.99305,-0.36333 -1.51346,-0.30711 -0.5204,0.0562 -1.02006,0.26655 -1.43895,0.58042 -0.41889,0.31387 -0.75797,0.72907 -1.00372,1.19123 -0.12555,0.23611 -0.22787,0.48618 -0.28278,0.7479 -0.0549,0.26172 -0.0613,0.53581 0.002,0.79558 0.11889,0.48651 0.47443,0.88784 0.88868,1.16931 0.22161,0.15058 0.46405,0.27319 0.72252,0.34375 0.25847,0.0706 0.53359,0.0879 0.79549,0.0314 0.2619,-0.0565 0.50974,-0.18908 0.68854,-0.38862 0.1788,-0.19955 0.28463,-0.46724 0.27237,-0.73489 -0.0122,-0.26587 -0.14282,-0.52412 -0.34978,-0.69145 -0.20697,-0.16733 -0.48685,-0.24099 -0.74937,-0.19723"
       id="path10940"
       inkscape:path-effect="#path-effect10942"
       inkscape:original-d="m 157.15448,173.99246 c 0.49917,0.87334 0.99807,1.74642 1.49671,2.61924 0.49864,0.87282 2.49478,-0.87282 3.74178,-1.30962 1.24699,-0.43681 0.74862,-2.12008 1.12253,-3.18051 0.37391,-1.06043 -4.06112,0.21853 -4.93446,0.28063 -0.87335,0.0621 0.17537,0.72678 -0.28064,1.54348 -0.50991,0.91325 0.51117,1.96077 0.88868,1.16931 0.68589,-1.43803 1.29272,0.68783 2.47892,-0.74835 0.57281,-0.69351 -0.59998,-1.0755 -1.09915,-0.88868"
       sodipodi:nodetypes="csssssssc" />
    <path
       style="fill:#000000;stroke:none;stroke-width:0.264583px;stroke-linecap:butt;stroke-linejoin:miter;stroke-opacity:1"
       d="m 141.11228,146.93346 -0.1049,0.84218 -0.84436,0.12644 0.86775,0.15368 0.22366,0.77236 0.0992,-0.79375 0.69454,-0.23149 -0.75301,-0.0718 z"
       id="path10944"
       sodipodi:nodetypes="ccccccccc" />
    <path
       style="fill:#000000;stroke:none;stroke-width:0.136575px;stroke-linecap:butt;stroke-linejoin:miter;stroke-opacity:1"
       d="m 139.3434,146.74637 -0.0541,0.43472 -0.43585,0.0653 0.44792,0.0793 0.11545,0.39868 0.0512,-0.40972 0.35851,-0.1195 -0.38869,-0.0371 z"
       id="path10946"
       sodipodi:nodetypes="ccccccccc" />
    <path
       style="fill:none;stroke:#000000;stroke-width:0.264583px;stroke-linecap:butt;stroke-linejoin:miter;stroke-opacity:1"
       d="m 143.33802,120.65 -1.98438,-2.64583"
       id="path10948"
       sodipodi:nodetypes="cc" />
    <path
       style="fill:none;stroke:#000000;stroke-width:0.264583px;stroke-linecap:butt;stroke-linejoin:miter;stroke-opacity:1"
       d="m 145.52083,120.05468 0.10406,-2.71534 0.0282,-0.79038"
       id="path10950"
       sodipodi:nodetypes="ccc" />
    <path
       style="fill:none;stroke:#000000;stroke-width:0.264583px;stroke-linecap:butt;stroke-linejoin:miter;stroke-opacity:1"
       d="m 147.96823,120.58385 1.71979,-3.175"
       id="path10952" />
    <path
       style="fill:none;stroke:#000000;stroke-width:0.264583px;stroke-linecap:butt;stroke-linejoin:miter;stroke-opacity:1"
       d="m 149.88646,122.17135 2.91041,-1.5875"
       id="path10954" />
    <path
       style="fill:none;stroke:#000000;stroke-width:0.264583px;stroke-linecap:butt;stroke-linejoin:miter;stroke-opacity:1"
       d="m 150.34758,124.83367 3.31109,-0.16526"
       id="path10960" />
    <path
       style="fill:none;stroke:#000000;stroke-width:0.264583px;stroke-linecap:butt;stroke-linejoin:miter;stroke-opacity:1"
       d="m 149.85102,127.26718 2.98129,1.45"
       id="path10962" />
    <path
       style="fill:none;stroke:#000000;stroke-width:0.264583px;stroke-linecap:butt;stroke-linejoin:miter;stroke-opacity:1"
       d="m 147.97831,128.79345 1.83193,2.76308"
       id="path10964" />
    <path
       style="fill:none;stroke:#000000;stroke-width:0.264583px;stroke-linecap:butt;stroke-linejoin:miter;stroke-opacity:1"
       d="m 141.80723,122.70888 -3.02384,-1.33963"
       id="path10966"
       sodipodi:nodetypes="cc"
       inkscape:transform-center-x="-0.79375"
       inkscape:transform-center-y="-0.066145833" />
    <path
       style="fill:#000000;stroke:none;stroke-width:0.136575px;stroke-linecap:butt;stroke-linejoin:miter;stroke-opacity:1"
       d="m 139.3434,149.5527 -0.0541,0.43472 -0.43585,0.0653 0.44792,0.0793 0.11545,0.39868 0.0512,-0.40972 0.35851,-0.1195 -0.38869,-0.0371 z"
       id="path11069"
       sodipodi:nodetypes="ccccccccc" />
    <path
       style="fill:none;stroke:#000000;stroke-width:0.264583px;stroke-linecap:butt;stroke-linejoin:miter;stroke-opacity:1"
       d="m 144.61954,171.56031 c 0.34179,-0.58139 0.87509,-1.04803 1.49671,-1.30962 0.68015,-0.28622 1.44494,-0.32533 2.17564,-0.22234 0.7307,0.103 1.43481,0.34187 2.1274,0.59651 1.07636,0.39574 2.13757,0.83271 3.18051,1.30962"
       id="path14110"
       inkscape:path-effect="#path-effect14112"
       inkscape:original-d="m 144.61954,171.56031 c 0.62389,-0.561 0.99807,-0.87282 1.49671,-1.30962 0.49864,-0.43681 2.86896,0.24971 4.30304,0.37417 1.43408,0.12447 2.1206,0.87335 3.18051,1.30962" />
    <path
       style="fill:none;stroke:#000000;stroke-width:0.264583px;stroke-linecap:butt;stroke-linejoin:miter;stroke-opacity:1"
       d="m 149.29676,174.55372 c 1.188,0.99213 2.60945,1.70286 4.11595,2.05798 1.16107,0.27369 2.3713,0.33739 3.55468,0.18709"
       id="path14114"
       inkscape:path-effect="#path-effect14116"
       inkscape:original-d="m 149.29676,174.55372 c 1.30988,0.6239 2.74423,1.37225 4.11595,2.05798 1.37172,0.68573 2.37005,0.12499 3.55468,0.18709" />
    <path
       style="fill:none;stroke:#000000;stroke-width:0.264583px;stroke-linecap:butt;stroke-linejoin:miter;stroke-opacity:1"
       d="m 147.61296,172.86992 c 1.11208,-0.24122 2.28907,-0.17583 3.36759,0.18709 0.91002,0.30622 1.7487,0.82233 2.43216,1.49671"
       id="path14118"
       inkscape:path-effect="#path-effect14120"
       inkscape:original-d="m 147.61296,172.86992 c 1.06043,0.18736 2.24533,0.12499 3.36759,0.18709 1.12227,0.0621 1.6217,0.99807 2.43216,1.49671" />
    <path
       style="fill:none;stroke:#000000;stroke-width:0.264583px;stroke-linecap:butt;stroke-linejoin:miter;stroke-opacity:1"
       d="m 164.82511,172.49575 c 0.0245,0.51429 0.26054,1.01533 0.64152,1.36167 0.38097,0.34634 0.90217,0.53371 1.41646,0.50922 0.35387,-0.0168 0.70259,-0.13156 0.99736,-0.32807 0.29477,-0.19652 0.53478,-0.47429 0.68644,-0.79446"
       id="path14122"
       inkscape:path-effect="#path-effect14124"
       inkscape:original-d="m 164.82511,172.49575 c 0.68626,0.56153 1.37225,1.24753 2.05798,1.87089 0.68573,0.62336 1.1228,-0.74809 1.6838,-1.12253" />
  </g>
</svg>
