<?xml version="1.0" encoding="UTF-8" standalone="no"?>
<!-- Created with Inkscape (http://www.inkscape.org/) -->

<svg
   width="1200"
   height="1200"
   viewBox="0 0 317.5 317.5"
   version="1.1"
   id="svg5"
   inkscape:version="1.2.1 (9c6d41e4, 2022-07-14)"
   sodipodi:docname="cat.svg"
   xmlns:inkscape="http://www.inkscape.org/namespaces/inkscape"
   xmlns:sodipodi="http://sodipodi.sourceforge.net/DTD/sodipodi-0.dtd"
   xmlns="http://www.w3.org/2000/svg"
   xmlns:svg="http://www.w3.org/2000/svg">
  <sodipodi:namedview
     id="namedview7"
     pagecolor="#ffffff"
     bordercolor="#eeeeee"
     borderopacity="1"
     inkscape:pageshadow="0"
     inkscape:pageopacity="0"
     inkscape:pagecheckerboard="0"
     inkscape:document-units="px"
     showgrid="false"
     inkscape:showpageshadow="false"
     showborder="false"
     units="px"
     inkscape:deskcolor="#d1d1d1"
     borderlayer="true"
     inkscape:zoom="1"
     inkscape:cx="571"
     inkscape:cy="684.5"
     inkscape:window-width="2379"
     inkscape:window-height="1041"
     inkscape:window-x="0"
     inkscape:window-y="25"
     inkscape:window-maximized="0"
     inkscape:current-layer="layer1" />
  <defs
     id="defs2">
    <inkscape:path-effect
       effect="spiro"
       id="path-effect2525"
       is_visible="true"
       lpeversion="1" />
    <inkscape:path-effect
       effect="spiro"
       id="path-effect2668"
       is_visible="true"
       lpeversion="1" />
  </defs>
  <g
     inkscape:label="Layer 1"
     inkscape:groupmode="layer"
     id="layer1">
    <g
       id="g2652"
       transform="matrix(2.5269433,-4.10541,4.10541,2.5269433,-761.71195,197.88929)">
      <path
         style="fill:#000000;stroke:#000000;stroke-width:0.264583px;stroke-linecap:butt;stroke-linejoin:miter;stroke-opacity:1"
         d="m 100.74725,159.02537 c -0.40907,0.0353 -0.808804,0.17487 -1.150551,0.40246 -0.341748,0.22758 -0.624758,0.54272 -0.813883,0.90716 -0.251397,0.48444 -0.333315,1.04701 -0.280633,1.59025 0.08508,0.87734 0.526649,1.71819 1.212166,2.2723 0.685521,0.55411 1.608281,0.80978 2.478541,0.66973 0.50528,-0.0813 0.98332,-0.28816 1.42679,-0.5436 0.44347,-0.25544 0.85639,-0.55985 1.27561,-0.8534 1.13895,-0.79751 2.33015,-1.51842 3.5453,-2.19416 0.4633,-0.25764 0.93566,-0.51268 1.32388,-0.87366 0.19411,-0.18049 0.36579,-0.38705 0.4926,-0.61981 0.1268,-0.23276 0.20788,-0.49244 0.21879,-0.75727 0.0108,-0.26138 -0.0475,-0.52478 -0.16361,-0.7592 -0.11613,-0.23441 -0.28957,-0.43963 -0.49879,-0.59668 -0.41843,-0.3141 -0.97507,-0.42537 -1.48912,-0.32792 -0.55958,0.10608 -1.04833,0.43757 -1.49731,0.78799 -0.44899,0.35042 -0.88389,0.73226 -1.40208,0.9686 -0.474,0.21618 -1.00044,0.30094 -1.5214,0.30172 -0.52097,7.9e-4 -1.03877,-0.08 -1.54951,-0.18272 -0.5308,-0.10678 -1.06736,-0.2383 -1.60679,-0.19179 z"
         id="path2523"
         inkscape:path-effect="#path-effect2525"
         inkscape:original-d="m 100.74725,159.02537 c -0.53035,-0.21854 -1.30936,0.87334 -1.964434,1.30962 -0.655074,0.43627 -0.186823,1.06043 -0.280633,1.59025 -0.09381,0.52982 -2.364919,2.66166 3.690707,2.94203 1.55147,0.0718 1.27772,-0.96564 2.7024,-1.397 0.93707,-0.28372 2.67248,-2.25626 3.5453,-2.19416 0.87281,0.0621 1.22482,-1.53331 2.03527,-2.25074 0.81045,-0.71744 -1.43408,-1.12227 -2.15152,-1.6838 -0.71744,-0.56153 -1.83896,1.41386 -2.89939,1.75659 -1.06043,0.34273 -2.1352,-0.31728 -3.07091,0.119 -0.93571,0.43627 -1.07644,0.0267 -1.60679,-0.19179 z"
         sodipodi:nodetypes="sssssssssss" />
      <path
         style="fill:#000000;stroke:#000000;stroke-width:0.264583px;stroke-linecap:butt;stroke-linejoin:miter;stroke-opacity:1"
         d="m 108.41788,157.18755 c 0,0 0.72009,-1.17265 1.16128,-0.94112 0.36,0.18892 -0.0936,1.21608 -0.0936,1.21608 z"
         id="path2527"
         sodipodi:nodetypes="cscc" />
      <path
         style="fill:#000000;stroke:#000000;stroke-width:0.264583px;stroke-linecap:butt;stroke-linejoin:miter;stroke-opacity:1"
         d="m 110.32648,158.21731 c 0,0 1.2187,-0.12409 1.29215,0.31295 0.0674,0.40094 -1.02642,0.65884 -1.02642,0.65884 z"
         id="path2529"
         sodipodi:nodetypes="cscc" />
      <ellipse
         style="fill:#ffffff;fill-opacity:1;stroke:#1a1a1a;stroke-width:0.0529167;stroke-linecap:round;stroke-dasharray:none"
         id="path2635"
         cx="22.882818"
         cy="190.42207"
         rx="0.47955728"
         ry="0.31419271"
         transform="rotate(-27.484469)" />
      <ellipse
         style="fill:#ffffff;fill-opacity:1;stroke:#1a1a1a;stroke-width:0.0529167;stroke-linecap:round;stroke-dasharray:none"
         id="ellipse2639"
         cx="23.268742"
         cy="191.72261"
         rx="0.47955728"
         ry="0.31419271"
         transform="rotate(-27.484469)" />
    </g>
    <path
       style="fill:#ffffff;stroke:#ffffff;stroke-width:0.477206px;stroke-linecap:butt;stroke-linejoin:miter;stroke-opacity:1"
       d="m 153.49868,198.80821 c -0.83589,0.66383 -1.32281,1.74453 -1.26627,2.81045 0.025,0.4707 0.15788,0.95025 0.46276,1.30973 0.15244,0.17974 0.34641,0.32607 0.56615,0.41127 0.21975,0.0852 0.46539,0.10757 0.69417,0.051 0.18447,-0.0456 0.35478,-0.14123 0.49865,-0.26539 0.14388,-0.12415 0.262,-0.27634 0.35818,-0.44024 0.19238,-0.32779 0.29684,-0.6982 0.40863,-1.06146 1.28412,-4.17264 3.75262,-7.89954 5.08523,-12.05695 0.53139,-1.65781 0.87958,-3.39777 0.76559,-5.13493 -0.11398,-1.73716 -0.72065,-3.47824 -1.90546,-4.75376 -0.30746,-0.331 -0.65429,-0.63075 -1.05291,-0.84334 -0.39863,-0.21259 -0.85229,-0.335 -1.30286,-0.30216 -0.45057,0.0328 -0.89592,0.22996 -1.18866,0.57404 -0.14637,0.17204 -0.25317,0.37849 -0.30291,0.59882 -0.0497,0.22034 -0.0417,0.45428 0.029,0.6688 0.11218,0.34022 0.37682,0.61666 0.68817,0.79386 0.31134,0.1772 0.66724,0.26281 1.02297,0.30521 0.71144,0.0848 1.4514,0.007 2.12937,0.23921 0.66124,0.22602 1.20568,0.739 1.5336,1.35609 0.32793,0.61708 0.44926,1.33116 0.41558,2.02915 -0.0674,1.39598 -0.72236,2.68674 -1.35863,3.93111 -1.01835,1.99162 -2.02368,3.98989 -3.01593,5.99464 l -0.91546,1.25922 z"
       id="path2654"
       inkscape:path-effect="#path-effect2668"
       inkscape:original-d="m 153.49868,198.80821 c -1.70699,-1.69947 -1.08453,1.26168 -1.26627,2.81045 -0.18127,1.54891 1.14936,1.18105 1.72308,1.77197 0.57377,0.59099 -2.89791,-12.32569 1.26546,-1.76709 14.53063,36.8505 6.59587,-20.24045 5.08523,-12.05695 -0.38999,2.11271 -2.20723,-8.33308 -1.13987,-9.88869 1.06732,-1.55567 18.92129,-51.2341 -3.81829,0.69616 -1.98485,4.53282 5.37294,0.46278 3.84051,1.33828 -1.53247,0.87546 1.35074,5.09604 0.59055,7.31635 -0.76018,2.22031 -2.51721,3.92955 -3.01593,5.99464 1.3412,2.04145 3.03305,5.19047 -0.91546,1.25922 z"
       sodipodi:nodetypes="cssssssssccc" />
    <path
       style="fill:#ffffff;stroke:#ffffff;stroke-width:0.127549;stroke-linecap:butt;stroke-linejoin:miter;stroke-dasharray:none;stroke-opacity:1"
       d="m 165.52047,157.53276 -4.5495,-1.2117"
       id="path2675" />
    <path
       style="fill:#ffffff;stroke:#ffffff;stroke-width:0.154496;stroke-linecap:butt;stroke-linejoin:miter;stroke-dasharray:none;stroke-opacity:1"
       d="m 165.48929,157.56048 -4.12538,0.94126"
       id="path2677" />
    <path
       style="fill:#ffffff;stroke:#ffffff;stroke-width:0.109371;stroke-linecap:butt;stroke-linejoin:miter;stroke-dasharray:none;stroke-opacity:1"
       d="m 165.51084,157.55523 -3.03868,2.77242"
       id="path2679" />
    <path
       style="fill:#ffffff;stroke:#ffffff;stroke-width:0.104086;stroke-linecap:butt;stroke-linejoin:miter;stroke-dasharray:none;stroke-opacity:1"
       d="m 165.64432,157.64784 2.83876,2.52333"
       id="path2681"
       inkscape:transform-center-x="-1.3844178"
       inkscape:transform-center-y="1.3121116" />
    <path
       style="fill:#ffffff;stroke:#ffffff;stroke-width:0.110551;stroke-linecap:butt;stroke-linejoin:miter;stroke-dasharray:none;stroke-opacity:1"
       d="m 165.72174,157.53744 4.28899,0.40108"
       id="path2683"
       inkscape:transform-center-x="-2.2109488"
       inkscape:transform-center-y="0.15535296" />
    <path
       style="fill:#ffffff;stroke:#ffffff;stroke-width:0.110079;stroke-linecap:butt;stroke-linejoin:miter;stroke-dasharray:none;stroke-opacity:1"
       d="m 165.53234,157.53806 3.80614,-2.68387"
       id="path2685" />
    <text
       xml:space="preserve"
       style="font-style:normal;font-weight:normal;font-size:10.5833px;line-height:1.25;font-family:sans-serif;fill:#000000;fill-opacity:1;stroke:none;stroke-width:0.264583"
       x="203.2"
       y="198.17291"
       id="text4135"><tspan
         sodipodi:role="line"
         id="tspan4133"
         style="stroke-width:0.264583"
         x="203.2"
         y="198.17291">Draw a pot</tspan></text>
  </g>
</svg>
