<?xml version="1.0" encoding="UTF-8" standalone="no"?>
<!-- Created with Inkscape (http://www.inkscape.org/) -->

<svg
   width="3000"
   height="3000"
   viewBox="0 0 793.75 793.74999"
   version="1.1"
   id="svg5"
   inkscape:version="1.2.1 (9c6d41e4, 2022-07-14)"
   sodipodi:docname="ride-circle-mountain.svg"
   xml:space="preserve"
   xmlns:inkscape="http://www.inkscape.org/namespaces/inkscape"
   xmlns:sodipodi="http://sodipodi.sourceforge.net/DTD/sodipodi-0.dtd"
   xmlns="http://www.w3.org/2000/svg"
   xmlns:svg="http://www.w3.org/2000/svg"><sodipodi:namedview
     id="namedview7"
     pagecolor="#ffffff"
     bordercolor="#eeeeee"
     borderopacity="1"
     inkscape:pageshadow="0"
     inkscape:pageopacity="0"
     inkscape:pagecheckerboard="0"
     inkscape:document-units="px"
     showgrid="false"
     inkscape:showpageshadow="false"
     showborder="false"
     units="px"
     inkscape:deskcolor="#d1d1d1"
     borderlayer="true"
     inkscape:zoom="0.35"
     inkscape:cx="1702.8571"
     inkscape:cy="1662.8571"
     inkscape:window-width="1720"
     inkscape:window-height="982"
     inkscape:window-x="3512"
     inkscape:window-y="414"
     inkscape:window-maximized="0"
     inkscape:current-layer="layer1" /><defs
     id="defs2" /><g
     inkscape:label="Layer 1"
     inkscape:groupmode="layer"
     id="layer1"><path
       id="path12881"
       style="fill:none;stroke:#000000;stroke-width:1.32292;stroke-linecap:round;stroke-linejoin:round"
       d="M 662.40114 203.34609 A 321.25797 321.25797 0 0 1 716.24307 381.37796 L 716.24307 381.37796 A 321.25797 321.25797 0 0 1 394.98511 702.63593 A 321.25797 321.25797 0 0 1 73.727142 381.37796 A 321.25797 321.25797 0 0 1 383.26645 60.333799 " /><path
       style="fill:none;stroke:#000000;stroke-width:0.264583px;stroke-linecap:butt;stroke-linejoin:miter;stroke-opacity:1"
       d="m 684.1369,254.75595 -2.96228,272.57487"
       id="path13856" /><path
       style="fill:none;stroke:#000000;stroke-width:0.195457px;stroke-linecap:butt;stroke-linejoin:miter;stroke-opacity:1"
       d="M 669.74785,217.85109 659.09233,564.21128"
       id="path13858" /><path
       style="fill:none;stroke:#000000;stroke-width:0.264583px;stroke-linecap:butt;stroke-linejoin:miter;stroke-opacity:1"
       d="m 669.74785,217.85109 14.38905,36.90486"
       id="path13860"
       sodipodi:nodetypes="cc" /><path
       style="fill:none;stroke:#000000;stroke-width:0.264583px;stroke-linecap:butt;stroke-linejoin:miter;stroke-opacity:1"
       d="m 666.86781,311.46763 -5.78747,-138.73251 -18.14285,19.27678 -6.80357,91.09226 -22.30059,18.89882 -8.18658,321.92055"
       id="path13862" /><path
       style="fill:none;stroke:#000000;stroke-width:0.264583px;stroke-linecap:butt;stroke-linejoin:miter;stroke-opacity:1"
       d="M 638.67945,249.02235 633.86607,81.264881 588.8869,66.901784 574.90177,39.309524 556.75892,27.214285 551.46725,88.068451 533.70239,73.327381 504.22024,158.75 499.8639,685.03421"
       id="path13864" /><path
       style="fill:none;stroke:#000000;stroke-width:0.264583px;stroke-linecap:butt;stroke-linejoin:miter;stroke-opacity:1"
       d="M 682.65576,391.04339 701.3826,284.80027"
       id="path13876" /><path
       style="fill:none;stroke:#000000;stroke-width:0.264583px;stroke-linecap:butt;stroke-linejoin:miter;stroke-opacity:1"
       d="m 682.52548,424.08927 14.4626,-25.91803 h 11.3393 l 0.57653,51.4831"
       id="path13878" /><path
       style="fill:none;stroke:#000000;stroke-width:0.264583px;stroke-linecap:butt;stroke-linejoin:miter;stroke-opacity:1"
       d="m 701.3826,284.80027 14.86046,96.57768"
       id="path13880" /><path
       style="fill:none;stroke:#000000;stroke-width:0.264583px;stroke-linecap:butt;stroke-linejoin:miter;stroke-opacity:1"
       d="M 501.5861,476.97789 484.56548,462.64284 437.96692,699.74763"
       id="path13882" /><path
       style="fill:none;stroke:#000000;stroke-width:0.264583px;stroke-linecap:butt;stroke-linejoin:miter;stroke-opacity:1"
       d="m 484.56548,462.64284 -20.41073,-8.31545 -69.16964,248.30854"
       id="path13884" /><path
       style="fill:none;stroke:#000000;stroke-width:0.264583px;stroke-linecap:butt;stroke-linejoin:miter;stroke-opacity:1"
       d="m 474.3601,458.4851 10.25528,-222.18158 17.05594,-42.77971 v 187.96106"
       id="path13886" /><path
       style="fill:none;stroke:#000000;stroke-width:0.264583px;stroke-linecap:butt;stroke-linejoin:miter;stroke-opacity:1"
       d="m 501.67132,550.33333 c 0,-3.02382 26.7394,-91.84214 26.7394,-91.84214 l 11.33927,40.43738 35.52976,-137.58333 12.09524,57.45236 18.27176,205.12593"
       id="path13888" /><path
       style="fill:none;stroke:#000000;stroke-width:0.264583px;stroke-linecap:butt;stroke-linejoin:miter;stroke-opacity:1"
       d="M 534.08034,478.70988 545.7976,143.63095 579.05951,84.666666 581.32736,390.07142"
       id="path13890" /><g
       id="use2215"
       transform="matrix(0.38170399,0.06095213,0.06095213,-0.38170399,423.3333,442.23217)"><path
         d="m 19.431,-15.367 c -1.379,1.747 -3.54,4.207 -1.401,3.205 3.154,-0.682 6.099,9.358 -2.915,6.453 -1.098,-0.041 -1.023,0.958 -1.023,0.958 -0.151,2.581 -1.06,2.581 -1.06,2.581 -1.239,1.147 0.838,-0.094 1.628,1.873 0.53,0.708 0.909,0.458 0.909,0.458 2.037,-0.168 9.644,9.382 10.866,11.074 8.122,10.956 -17.471,29.636 -28.472,20.315 -1.438,-0.998 -0.416,1.457 -0.416,1.457 0.602,3.429 -8.083,9.164 -11.851,1.915 -3.097,-3.034 -1.548,-7.728 -2.499,-8.992 -1.97,-2.539 0,-3.914 0,-3.914 l 2.878,3.248 c 1.363,-0.625 2.499,0.666 2.499,0.666 1.064,0.739 1.102,-2.775 1.969,-1.749 0.767,0.657 1.471,-0.921 -0.151,-1.748 -0.947,-0.458 -0.189,-1.083 -0.189,-1.083 0.53,-0.374 0.264,-0.624 0.264,-0.624 0.303,-1.249 2.992,-1.291 2.992,-1.291 2.658,-0.324 0.066,5.304 4.088,5.079 1.097,0.292 0.606,-0.708 0.606,-0.708 -0.117,-0.874 -1.114,-6.218 0.719,-6.911 0.379,-1.748 -3.937,-1.082 -3.937,-1.082 -4.349,1.041 -8.323,-2.296 -7.875,-3.622 0.113,-1.124 -0.341,-1.166 -0.341,-1.166 -1.363,-0.874 -0.53,-2.247 -0.53,-2.247 -0.645,-0.416 -0.039,-1.498 -0.039,-1.498 -0.719,-0.583 0.077,-1.415 0.077,-1.415 -0.531,-0.584 -0.077,-2.54 -0.077,-2.54 l -0.491,-1.748 c -2.393,-0.33 -3.793,-9.141 -1.439,-8.909 0.407,0.242 2.122,-0.269 -0.038,-2.706 -1.06,0.917 -1.287,0 -1.287,0 l -2.121,-3.164 c -22.142,7.012 -27.044,-21.54 -8.178,-22.563 12.728,-0.562 19.674,12.236 11.434,20.189 -0.637,0.469 0.64,0.47 0.037,1.375 -0.567,0.624 0.455,1.581 0.455,1.581 0.626,0 0.193,1.679 1.021,0.874 5.264,-3.575 8.714,-5.144 3.9,-5.329 -3.029,-2.913 1.855,-3.955 1.855,-3.955 0.568,0 0.682,-0.708 0.682,-0.708 0,-1.282 2.156,-0.691 2.082,-1.332 0.228,-2.165 1.061,-0.791 1.061,-0.791 5.716,1.143 6.214,1.35 5.868,0.875 -3.483,-4.912 2.046,-6.244 2.046,-6.244 l 8.291,-0.208 c 5.204,-13.815 27.116,-10.591 27.753,2.207 -0.947,17.11 -19.65,11.864 -19.65,11.864 z m -38.43,-2.124 -3.823,-5.828 c -0.644,0.25 -2.121,-0.416 -2.121,-0.416 -0.606,0.873 0.264,0.707 0.264,0.707 0.76,-0.464 0.507,-0.405 4.809,6.161 0.644,0.001 0.871,-0.624 0.871,-0.624 z m -14.047,-12.197 c -7.085,5.364 -0.387,17.114 11.889,13.488 l -2.348,-3.622 c 0,0 -5.264,-1.874 -3.18,-2.79 0,0 1.097,-0.916 0.037,-1.623 0,0 -0.416,-0.791 0.455,-1.124 l 0.567,-0.583 c 0,0 0.985,0.208 0.795,-0.708 0.766,-2.247 1.234,-0.644 6.891,8.284 7.684,-7.25 -5.243,-18.585 -15.106,-11.322 z m 20.559,32.722 1.174,3.788 c 1.82,1.151 3.483,4.339 3.483,4.954 -0.117,1.281 3.252,-1.674 6.285,-1.832 1.313,-0.073 -1.574,-7.296 -3.407,-9.118 0,0 -1.704,-4.371 -3.446,-4.329 -1.457,-0.047 -4.161,-2.103 -4.012,0.625 0,0 0.264,2.165 -0.113,3.747 -10e-4,0 0.415,1.415 0.036,2.165 z m 4.935,-25.173 0.101,0.473 c 0,0 1.11,0 1.11,-0.694 z m 2.6,-0.027 c 0,0 -0.126,0.471 1.06,0.417 l 0.05,-0.389 z m 1.64,0 c -0.685,1.788 1.159,2.024 1.566,1.666 1.941,-1.106 0.629,-1.109 -1.566,-1.666 z m 2.221,8.159 c 0,0 -0.556,0.11 -1.312,-0.86 0,0 -1.413,-1.528 -3.029,-0.971 -10.591,7.359 -11.012,6.568 -1.716,4.884 0.224,-0.775 0.254,-0.596 6.235,-1.636 -0.071,-0.872 1.106,-1.566 -0.178,-1.417 z m 2.31,9.672 c -0.833,-1.416 -1.628,-5.995 -1.628,-5.995 -5.973,1.35 -5.892,1.578 -6.436,0.708 -2.356,0.519 -2.947,0.47 -2.992,1.29 -0.057,1.774 4.019,1.16 4.619,3.581 0,0.75 0.606,0.458 0.606,0.458 0.424,0 6.251,5.983 6.549,6.285 -0.502,-1.253 0.08,-3.946 -0.718,-6.327 z m 5.566,22.313 c 0.151,1.79 5.036,0.459 5.036,0.459 1.777,-0.212 -0.372,0.002 -1.515,-2.581 C 5.103,11.933 2.269,2.387 6.785,17.978 Z m 3.294,-30.681 -2.196,0.458 c 0,0 -0.493,0.998 -1.553,0.957 0,0 0.53,3.206 1.249,2.54 0,0 3.143,-3.913 2.5,-3.955 z m -4.783,-6.632 c 0.844,2.163 -1.025,3.558 0.05,3.996 0.859,0.167 0.806,1.055 0.806,1.055 0.589,-0.079 1.273,-0.282 1.162,0.333 3.093,-0.59 3.076,0.603 -1.918,-6.745 -0.732,0.528 -0.1,1.361 -0.1,1.361 z m 5.931,-9.632 H 6.053 c -0.126,0.557 0.379,0.417 0.379,0.417 0.252,-0.084 0.277,0.14 0.277,0.14 -0.049,0.193 0.277,0.055 0.277,0.055 0.227,0 0.278,0.25 0.278,0.25 -0.152,0.291 0.469,0.048 0.428,0.387 -0.125,0.361 0.33,0.334 0.33,0.334 0.352,-0.833 2.927,-0.859 2.927,-0.859 0.329,-0.001 0.278,-0.724 0.278,-0.724 z m 0.809,7.217 c -7.16,-0.259 -6.562,-1.415 -1.818,5.855 0.531,0.485 0.506,0.23 3.231,-2.886 0.767,-0.704 -0.144,-0.215 -1.413,-2.969 z m 11.382,-2.304 0.052,-1.276 c 0,0 -3.105,0.471 -3.964,1.055 -0.833,0.991 0.722,0.592 3.912,0.221 z M 20.87,-25.72 c -0.541,0.707 0.066,0.387 2.65,-0.333 0,0 0.504,-0.11 0.177,-0.443 -1.203,-0.233 0.876,-2.278 -2.827,0.776 z m -1.919,0.611 c 2.754,-2.733 2.462,-2.335 -2.423,-1.277 -0.836,0.704 1.241,2.185 2.423,1.277 z m -4.417,-3.08 c 0,0 0.05,0.666 0.833,0.25 l 2.651,-0.499 c 0.599,-0.55 0.231,-0.414 -2.878,-0.472 0,-0.001 -0.379,-0.279 -0.606,0.721 z m 0.542,-1.166 c 10.29,-0.085 12.73,-0.789 11.624,1.998 0,0 -0.037,0.792 -0.909,1.25 -0.511,0.811 0.827,0.538 0.492,1.789 0,0 0.151,0.833 -0.492,1.291 v 0.707 l -2.954,0.25 c 0,0 -0.491,-0.112 -0.984,0.57 0,0 -0.126,0.359 0.102,0.387 0,0 0.327,0.694 0.025,0.971 l -0.706,1.139 c -0.87,0.954 13.788,3.014 14.437,-8.229 0.087,-7.653 -15.576,-10.71 -20.635,-2.123 z"
         id="path1383" /></g></g></svg>
