<?xml version="1.0" encoding="UTF-8" standalone="no"?>
<!-- Created with Inkscape (http://www.inkscape.org/) -->

<svg
   width="1200"
   height="1200"
   viewBox="0 0 317.5 317.5"
   version="1.1"
   id="svg5"
   inkscape:version="1.2.1 (9c6d41e4, 2022-07-14)"
   xml:space="preserve"
   sodipodi:docname="van.svg"
   inkscape:export-filename="van.jpg"
   inkscape:export-xdpi="300"
   inkscape:export-ydpi="300"
   xmlns:inkscape="http://www.inkscape.org/namespaces/inkscape"
   xmlns:sodipodi="http://sodipodi.sourceforge.net/DTD/sodipodi-0.dtd"
   xmlns="http://www.w3.org/2000/svg"
   xmlns:svg="http://www.w3.org/2000/svg"><sodipodi:namedview
     id="namedview7"
     pagecolor="#ffffff"
     bordercolor="#eeeeee"
     borderopacity="1"
     inkscape:pageshadow="0"
     inkscape:pageopacity="0"
     inkscape:pagecheckerboard="0"
     inkscape:document-units="px"
     showgrid="false"
     inkscape:showpageshadow="false"
     showborder="false"
     units="px"
     inkscape:deskcolor="#d1d1d1"
     borderlayer="true"
     inkscape:zoom="1"
     inkscape:cx="684.5"
     inkscape:cy="605.5"
     inkscape:window-width="1720"
     inkscape:window-height="1387"
     inkscape:window-x="0"
     inkscape:window-y="25"
     inkscape:window-maximized="0"
     inkscape:current-layer="layer1" /><defs
     id="defs2"><style
       id="style7693">.cls-1{fill:#47566a;}</style></defs><g
     inkscape:label="Layer 1"
     inkscape:groupmode="layer"
     id="layer1"><path
       class="cls-1"
       d="m 89.71985,193.90263 a 12.104684,12.104684 0 1 0 12.10468,12.10468 12.104684,12.104684 0 0 0 -12.10468,-12.10468 z m 0,20.17447 a 8.0697892,8.0697892 0 1 1 8.069789,-8.06979 8.0697892,8.0697892 0 0 1 -8.069789,8.06979 z"
       id="path7699"
       style="stroke-width:2.01745" /><path
       class="cls-1"
       d="m 263.22032,193.90263 a 12.104684,12.104684 0 1 0 12.10468,12.10468 12.104684,12.104684 0 0 0 -12.10468,-12.10468 z m 0,20.17447 a 8.0697892,8.0697892 0 1 1 8.06979,-8.06979 8.0697892,8.0697892 0 0 1 -8.06979,8.06979 z"
       id="path7701"
       style="stroke-width:2.01745" /><path
       class="cls-1"
       d="m 287.75248,149.74071 -15.45365,-5.16467 -15.45365,-27.92147 c -3.25432,-5.86404 -9.43304,-9.50176 -16.13957,-9.50217 H 64.199141 c -6.1192,-1e-5 -11.560627,3.89252 -13.537071,9.68374 l -11.277531,32.88439 c -0.100872,0.46402 -0.100872,-3.61123 -0.100872,54.26934 -0.01,1.01262 0.732304,1.87572 1.735005,2.01744 l 26.852223,3.81298 c 1.876088,10.54922 11.02168,18.2515 21.736289,18.30596 10.714606,0.0545 19.938026,-7.55443 21.921266,-18.08404 h 129.88326 c 1.97506,10.48818 11.13608,18.08509 21.80861,18.08509 10.67252,0 19.83354,-7.59691 21.8086,-18.08509 h 10.47055 c 1.11421,0 2.01745,-0.90324 2.01745,-2.01745 V 163.3383 c -0.004,-6.15675 -3.93189,-11.62605 -9.76444,-13.59759 z m -47.0267,-38.55342 c 5.23338,0.004 10.05281,2.84636 12.58887,7.42421 l 15.13086,27.35658 -14.12214,3.55071 -21.66241,1.05833 -2.64584,-38.86066 z m -96.23721,39.6875 58.20833,-1.356 h -56.48853 v -38.3315 z m -2.31509,-1.356 H 92.705672 l 50.399818,1.356 -0.93201,-39.6875 z m -49.689728,-38.3315 -3.83315,38.3315 h -13.94056 l -10.611773,-7.08124 7.827695,-31.25026 z m -49.16519,50.43618 h 8.069789 v 16.13958 h -8.069789 z m 46.401288,62.54087 c -16.177306,0 -24.275996,-19.55763 -12.8383,-30.99533 11.437696,-11.4377 30.99533,-3.33901 30.99533,12.8383 0,10.02785 -8.129178,18.15703 -18.15703,18.15703 z m 173.50047,0 c -16.17731,1e-5 -24.27601,-19.55763 -12.83831,-30.99533 11.43769,-11.4377 30.99533,-3.33901 30.99533,12.8383 0,10.02785 -8.12917,18.15703 -18.15702,18.15703 z m 22.19192,-18.15703 c 0,-12.25627 -9.93566,-22.19191 -22.19192,-22.19191 -12.25626,0 -22.19192,9.93564 -22.19192,22.19191 H 111.91177 c 0.11699,-12.25627 -9.72383,-22.28675 -21.980091,-22.40374 -12.256259,-0.11699 -22.286759,9.72381 -22.40375,21.98008 l -24.209367,-3.42966 v -20.35604 h 10.087236 c 1.114206,0 2.017448,-0.90324 2.017447,-2.01745 v -20.17447 c 10e-7,-1.11421 -0.903241,-2.01745 -2.017447,-2.01745 H 43.318562 c 0,-9.17939 -1.815703,-1.59378 11.176658,-39.46127 1.410896,-4.15553 5.315411,-6.94795 9.703921,-6.94002 h 3.550707 c -8.412755,33.6712 -8.755721,32.70282 -7.061065,33.83259 13.274803,8.8566 12.548522,8.5338 13.416024,8.5338 H 254.98913 c 17.89476,-4.47873 16.70447,-4.03489 17.32987,-4.6603 l 14.12214,4.741 c 4.17993,1.39709 7.00945,5.2968 7.04089,9.70392 v 6.35496 h -6.05235 c -1.1142,0 -2.01744,0.90325 -2.01744,2.01745 v 12.10468 c 0,1.1142 0.90324,2.01745 2.01744,2.01745 h 6.05235 v 20.17447 z m 8.06979,-24.20936 h -4.0349 v -8.06979 h 4.0349 z"
       id="path7703"
       style="stroke-width:2.01745"
       sodipodi:nodetypes="ccccccccccsccscssccccccccccccccccccccccccccccccsssssssscsccscccsssscccccscccccsssscccccccc" /><path
       class="cls-1"
       d="m 216.81903,165.65837 h -8.06979 a 2.0174473,2.0174473 0 0 0 0,4.03489 h 8.06979 a 2.0174473,2.0174473 0 0 0 0,-4.03489 z"
       id="path7705"
       style="stroke-width:2.01745" /><path
       class="cls-1"
       d="m 160.33051,165.65837 h -8.06979 a 2.0174473,2.0174473 0 0 0 0,4.03489 h 8.06979 a 2.0174473,2.0174473 0 0 0 0,-4.03489 z"
       id="path7707"
       style="stroke-width:2.01745" /></g></svg>
